<mxfile host="Electron" agent="Mozilla/5.0 (Windows NT 10.0; Win64; x64) AppleWebKit/537.36 (KHTML, like Gecko) draw.io/24.7.8 Chrome/128.0.6613.36 Electron/32.0.1 Safari/537.36" version="24.7.8" pages="6">
  <diagram name="Zbuffer" id="t0vVUFBI7hAGxy4KRxR9">
    <mxGraphModel dx="744" dy="944" grid="1" gridSize="10" guides="1" tooltips="1" connect="1" arrows="1" fold="1" page="1" pageScale="1" pageWidth="1654" pageHeight="2336" math="0" shadow="0">
      <root>
        <mxCell id="0" />
        <mxCell id="1" parent="0" />
        <mxCell id="9sTnr-3qhtHR2wwVFp7q-18" style="edgeStyle=orthogonalEdgeStyle;rounded=0;orthogonalLoop=1;jettySize=auto;html=1;entryX=0.5;entryY=0;entryDx=0;entryDy=0;" edge="1" parent="1" source="9sTnr-3qhtHR2wwVFp7q-1" target="9sTnr-3qhtHR2wwVFp7q-2">
          <mxGeometry relative="1" as="geometry" />
        </mxCell>
        <mxCell id="9sTnr-3qhtHR2wwVFp7q-1" value="Буфер кадра заполняется фоновым цветом" style="rounded=0;whiteSpace=wrap;html=1;" vertex="1" parent="1">
          <mxGeometry x="160" y="200" width="190" height="60" as="geometry" />
        </mxCell>
        <mxCell id="9sTnr-3qhtHR2wwVFp7q-2" value="Заполнить Z-буфер максимальным значением Z" style="rounded=0;whiteSpace=wrap;html=1;" vertex="1" parent="1">
          <mxGeometry x="150" y="290" width="210" height="60" as="geometry" />
        </mxCell>
        <mxCell id="9sTnr-3qhtHR2wwVFp7q-24" value="" style="edgeStyle=orthogonalEdgeStyle;rounded=0;orthogonalLoop=1;jettySize=auto;html=1;" edge="1" parent="1" source="9sTnr-3qhtHR2wwVFp7q-4" target="9sTnr-3qhtHR2wwVFp7q-7">
          <mxGeometry relative="1" as="geometry" />
        </mxCell>
        <mxCell id="9sTnr-3qhtHR2wwVFp7q-4" value="Вычисляется глубина пикселя Z(x, y)" style="rounded=0;whiteSpace=wrap;html=1;" vertex="1" parent="1">
          <mxGeometry x="150" y="560" width="210" height="60" as="geometry" />
        </mxCell>
        <mxCell id="9sTnr-3qhtHR2wwVFp7q-26" style="edgeStyle=orthogonalEdgeStyle;rounded=0;orthogonalLoop=1;jettySize=auto;html=1;entryX=0.5;entryY=0;entryDx=0;entryDy=0;" edge="1" parent="1" source="9sTnr-3qhtHR2wwVFp7q-6" target="9sTnr-3qhtHR2wwVFp7q-8">
          <mxGeometry relative="1" as="geometry" />
        </mxCell>
        <mxCell id="9sTnr-3qhtHR2wwVFp7q-29" style="edgeStyle=orthogonalEdgeStyle;rounded=0;orthogonalLoop=1;jettySize=auto;html=1;entryX=0.5;entryY=0;entryDx=0;entryDy=0;entryPerimeter=0;" edge="1" parent="1" source="9sTnr-3qhtHR2wwVFp7q-6" target="9sTnr-3qhtHR2wwVFp7q-12">
          <mxGeometry relative="1" as="geometry">
            <mxPoint x="255" y="1050" as="targetPoint" />
            <Array as="points">
              <mxPoint x="70" y="780" />
              <mxPoint x="70" y="950" />
              <mxPoint x="255" y="950" />
            </Array>
          </mxGeometry>
        </mxCell>
        <mxCell id="9sTnr-3qhtHR2wwVFp7q-6" value="Z(x, y) меньше&amp;nbsp;&lt;div&gt;значения в Z-буфере?&lt;/div&gt;" style="rhombus;whiteSpace=wrap;html=1;" vertex="1" parent="1">
          <mxGeometry x="150" y="740" width="210" height="80" as="geometry" />
        </mxCell>
        <mxCell id="9sTnr-3qhtHR2wwVFp7q-25" value="" style="edgeStyle=orthogonalEdgeStyle;rounded=0;orthogonalLoop=1;jettySize=auto;html=1;" edge="1" parent="1" source="9sTnr-3qhtHR2wwVFp7q-7" target="9sTnr-3qhtHR2wwVFp7q-6">
          <mxGeometry relative="1" as="geometry" />
        </mxCell>
        <mxCell id="9sTnr-3qhtHR2wwVFp7q-7" value="Сравнивается глубина пикселя Z(x, y) с значением, хранящимся в Z-буфере для этой позиции" style="rounded=0;whiteSpace=wrap;html=1;" vertex="1" parent="1">
          <mxGeometry x="150" y="650" width="210" height="60" as="geometry" />
        </mxCell>
        <mxCell id="9sTnr-3qhtHR2wwVFp7q-27" value="" style="edgeStyle=orthogonalEdgeStyle;rounded=0;orthogonalLoop=1;jettySize=auto;html=1;" edge="1" parent="1" source="9sTnr-3qhtHR2wwVFp7q-8" target="9sTnr-3qhtHR2wwVFp7q-9">
          <mxGeometry relative="1" as="geometry" />
        </mxCell>
        <mxCell id="9sTnr-3qhtHR2wwVFp7q-8" value="Атрибуты пикселя записываются в буфер кадра" style="rounded=0;whiteSpace=wrap;html=1;" vertex="1" parent="1">
          <mxGeometry x="390" y="820" width="210" height="60" as="geometry" />
        </mxCell>
        <mxCell id="9sTnr-3qhtHR2wwVFp7q-9" value="Значением в Z-буфере обновляется на Z(x, y)" style="rounded=0;whiteSpace=wrap;html=1;" vertex="1" parent="1">
          <mxGeometry x="390" y="920" width="210" height="60" as="geometry" />
        </mxCell>
        <mxCell id="9sTnr-3qhtHR2wwVFp7q-10" value="&lt;p style=&quot;line-height: 1&quot;&gt;&lt;font style=&quot;font-size: 12px;&quot; face=&quot;Helvetica&quot;&gt;Цикл по полигонам объекта&lt;/font&gt;&lt;/p&gt;" style="strokeWidth=1;html=1;shape=stencil(rVXBUoMwFPyaXJmQ1EOPivXoxYPnlD5LpiEvE7C1f2/gwQgCbU1lmIG3C7t5ZBOYzKpCOWCCW1UCk89MCIPonmCvbbgPREHoilN5ojLta1U5yGsCj8prtTVATFV7PMBJ7+pOQtsCvK4bVm4YfwzPNKfMcrQ2iGi01YgZ8EFMaRve5V8kxpMHsjl3NVUuOJRQgx+hP829EsDES7RTepvTW4TTuKPe95rT+9+d0jinTczX478mKknXN85VRGM8WUfbLXQns4AsRVRmW5Uf9h4/7W52kB/amBwN+lDStTVjQvLuuNykU83ymRA9XeIRBtM6uybmpXsFo+1QQdwv0W8N5/Gg7tFYRYzjvxWi+oj4mrnBCi4kIuCTULToQhJDBtHDlYjSZr2U/olAi9KvowW+AQ==);whiteSpace=wrap;fontSize=10;fontFamily=Times New Roman;spacingLeft=10;spacingRight=10;spacingBottom=4;aspect=fixed;" vertex="1" parent="1">
          <mxGeometry x="150" y="380" width="210" height="60" as="geometry" />
        </mxCell>
        <mxCell id="9sTnr-3qhtHR2wwVFp7q-23" style="edgeStyle=orthogonalEdgeStyle;rounded=0;orthogonalLoop=1;jettySize=auto;html=1;exitX=0.5;exitY=1;exitDx=0;exitDy=0;exitPerimeter=0;entryX=0.5;entryY=0;entryDx=0;entryDy=0;" edge="1" parent="1" source="9sTnr-3qhtHR2wwVFp7q-11" target="9sTnr-3qhtHR2wwVFp7q-4">
          <mxGeometry relative="1" as="geometry" />
        </mxCell>
        <mxCell id="9sTnr-3qhtHR2wwVFp7q-11" value="&lt;p style=&quot;line-height: 1&quot;&gt;&lt;font style=&quot;font-size: 12px;&quot; face=&quot;Helvetica&quot;&gt;Цикл по пикселям полигона&lt;/font&gt;&lt;/p&gt;" style="strokeWidth=1;html=1;shape=stencil(rVXBUoMwFPyaXJmQ1EOPivXoxYPnlD5LpiEvE7C1f2/gwQgCbU1lmIG3C7t5ZBOYzKpCOWCCW1UCk89MCIPonmCvbbgPREHoilN5ojLta1U5yGsCj8prtTVATFV7PMBJ7+pOQtsCvK4bVm4YfwzPNKfMcrQ2iGi01YgZ8EFMaRve5V8kxpMHsjl3NVUuOJRQgx+hP829EsDES7RTepvTW4TTuKPe95rT+9+d0jinTczX478mKknXN85VRGM8WUfbLXQns4AsRVRmW5Uf9h4/7W52kB/amBwN+lDStTVjQvLuuNykU83ymRA9XeIRBtM6uybmpXsFo+1QQdwv0W8N5/Gg7tFYRYzjvxWi+oj4mrnBCi4kIuCTULToQhJDBtHDlYjSZr2U/olAi9KvowW+AQ==);whiteSpace=wrap;fontSize=10;fontFamily=Times New Roman;spacingLeft=10;spacingRight=10;spacingBottom=4;aspect=fixed;" vertex="1" parent="1">
          <mxGeometry x="150" y="470" width="210" height="60" as="geometry" />
        </mxCell>
        <mxCell id="9sTnr-3qhtHR2wwVFp7q-12" value="&lt;span style=&quot;color: rgb(0, 0, 0); font-family: Helvetica; font-size: 12px; font-style: normal; font-variant-ligatures: normal; font-variant-caps: normal; font-weight: 400; letter-spacing: normal; orphans: 2; text-align: center; text-indent: 0px; text-transform: none; widows: 2; word-spacing: 0px; -webkit-text-stroke-width: 0px; white-space: normal; background-color: rgb(251, 251, 251); text-decoration-thickness: initial; text-decoration-style: initial; text-decoration-color: initial; display: inline !important; float: none;&quot;&gt;Цикл по пикселям полигона&lt;/span&gt;" style="strokeWidth=1;html=1;shape=stencil(rVTBUoMwEP2aXJmQtDN6dBCPvXjwnNJVMk2zTMBW/96FBS0itEYZZmDfwnt52d0IndWlqUAo6c0BhL4XSjnEKvc7eiO4ZGwlOTxxmA6xqSsoGgaPJlizdcCZugm4h5PdNT2F9SUE27RZnQt5R9+0t84K9J5ILPp6lDnLE5mxnv6Vb0wmkzXLvPcxRxUpHKCBMEK/rG0YEOohWim9TukxQmnsaNC9pPT0e6U0TimP2T35rVDJzZU7uIkwJpPbaLkZdzojZK5FdbY1xf4l4CvNy0+LfLbOFegwUMjPTkwoLftr2WRl2vGZJIb0AY8w20BLzAOBs/6M4HOs/49CrSM41LiIq5h1/J0ixkjhsIaFehI+KWmHzvQRdRAGuNBgfNTO9e6EoEP52O+ADw==);whiteSpace=wrap;fontSize=10;fontFamily=Times New Roman;spacingLeft=10;spacingRight=10;spacingBottom=4;aspect=fixed;" vertex="1" parent="1">
          <mxGeometry x="150" y="1040" width="210" height="60" as="geometry" />
        </mxCell>
        <mxCell id="9sTnr-3qhtHR2wwVFp7q-31" style="edgeStyle=orthogonalEdgeStyle;rounded=0;orthogonalLoop=1;jettySize=auto;html=1;exitX=0.5;exitY=1;exitDx=0;exitDy=0;exitPerimeter=0;entryX=0.5;entryY=0;entryDx=0;entryDy=0;" edge="1" parent="1" source="9sTnr-3qhtHR2wwVFp7q-13" target="9sTnr-3qhtHR2wwVFp7q-15">
          <mxGeometry relative="1" as="geometry" />
        </mxCell>
        <mxCell id="9sTnr-3qhtHR2wwVFp7q-13" value="&lt;span style=&quot;font-family: Helvetica; font-size: 12px;&quot;&gt;Цикл по полигонам объекта&lt;/span&gt;" style="strokeWidth=1;html=1;shape=stencil(rVTBUoMwEP2aXJmQtDN6dBCPvXjwnNJVMk2zTMBW/96FBS0itEYZZmDfwnt52d0IndWlqUAo6c0BhL4XSjnEKvc7eiO4ZGwlOTxxmA6xqSsoGgaPJlizdcCZugm4h5PdNT2F9SUE27RZnQt5R9+0t84K9J5ILPp6lDnLE5mxnv6Vb0wmkzXLvPcxRxUpHKCBMEK/rG0YEOohWim9TukxQmnsaNC9pPT0e6U0TimP2T35rVDJzZU7uIkwJpPbaLkZdzojZK5FdbY1xf4l4CvNy0+LfLbOFegwUMjPTkwoLftr2WRl2vGZJIb0AY8w20BLzAOBs/6M4HOs/49CrSM41LiIq5h1/J0ixkjhsIaFehI+KWmHzvQRdRAGuNBgfNTO9e6EoEP52O+ADw==);whiteSpace=wrap;fontSize=10;fontFamily=Times New Roman;spacingLeft=10;spacingRight=10;spacingBottom=4;aspect=fixed;" vertex="1" parent="1">
          <mxGeometry x="150" y="1130" width="210" height="60" as="geometry" />
        </mxCell>
        <mxCell id="9sTnr-3qhtHR2wwVFp7q-15" value="&lt;p style=&quot;line-height: 1;&quot;&gt;&lt;font style=&quot;font-size: 12px;&quot; face=&quot;Helvetica&quot;&gt;Конец&lt;/font&gt;&lt;/p&gt;" style="shape=stencil(vZXxboMgEMafhj9dUNwDLG57j9NelRTBIKv27YegWdHq1s3OmJD7Dn/3nZyRsKytoEGSUAk1EvZKkiTHkku7WrHySkp92PkwnmJoGyyMF8+gOeQCfaY1Wp2w4wczIrisUHMzZNkboS92z3CzrFBSWghXsg0yV3kLAy7ts7T3sLH8JYgay6/RoB5NepUk7z/HPj0/Bhw/yG+Indzv7nc/cOg4ftTB7QaOf49lmVXWhptlORSnUqsPebhp5siFKJRQ2oZ+dbVIwuh4bTfTwPDhLRJTulZn/OpydizpJntCgC5WCWOkZ1l9CWMBusTIgqKjgDJ4m22H2CzlPoKet5FWBoaXGlTbtiu4vOo4vm34jo7nhPQPPdN/6fmuU3bTuxgip65Mrp1ZpfGbkfa/hY2qqxtc6UUFp/o/mBM+AQ==);whiteSpace=wrap;html=1;aspect=fixed;fontFamily=Times New Roman;fontSize=10;spacingBottom=4;" vertex="1" parent="1">
          <mxGeometry x="150" y="1230" width="210" height="60" as="geometry" />
        </mxCell>
        <mxCell id="9sTnr-3qhtHR2wwVFp7q-17" style="edgeStyle=orthogonalEdgeStyle;rounded=0;orthogonalLoop=1;jettySize=auto;html=1;exitX=0.5;exitY=1;exitDx=0;exitDy=0;entryX=0.5;entryY=0;entryDx=0;entryDy=0;" edge="1" parent="1" source="9sTnr-3qhtHR2wwVFp7q-16" target="9sTnr-3qhtHR2wwVFp7q-1">
          <mxGeometry relative="1" as="geometry" />
        </mxCell>
        <mxCell id="9sTnr-3qhtHR2wwVFp7q-16" value="&lt;p style=&quot;line-height: 1;&quot;&gt;&lt;font style=&quot;font-size: 12px;&quot; face=&quot;Helvetica&quot;&gt;Начало&lt;/font&gt;&lt;/p&gt;" style="shape=stencil(vZXxboMgEMafhj9dUNwDLG57j9NelRTBIKv27YegWdHq1s3OmJD7Dn/3nZyRsKytoEGSUAk1EvZKkiTHkku7WrHySkp92PkwnmJoGyyMF8+gOeQCfaY1Wp2w4wczIrisUHMzZNkboS92z3CzrFBSWghXsg0yV3kLAy7ts7T3sLH8JYgay6/RoB5NepUk7z/HPj0/Bhw/yG+Indzv7nc/cOg4ftTB7QaOf49lmVXWhptlORSnUqsPebhp5siFKJRQ2oZ+dbVIwuh4bTfTwPDhLRJTulZn/OpydizpJntCgC5WCWOkZ1l9CWMBusTIgqKjgDJ4m22H2CzlPoKet5FWBoaXGlTbtiu4vOo4vm34jo7nhPQPPdN/6fmuU3bTuxgip65Mrp1ZpfGbkfa/hY2qqxtc6UUFp/o/mBM+AQ==);whiteSpace=wrap;html=1;aspect=fixed;fontFamily=Times New Roman;fontSize=10;spacingBottom=4;" vertex="1" parent="1">
          <mxGeometry x="150" y="120" width="210" height="60" as="geometry" />
        </mxCell>
        <mxCell id="9sTnr-3qhtHR2wwVFp7q-22" style="edgeStyle=orthogonalEdgeStyle;rounded=0;orthogonalLoop=1;jettySize=auto;html=1;exitX=0.5;exitY=1;exitDx=0;exitDy=0;exitPerimeter=0;entryX=0.5;entryY=0;entryDx=0;entryDy=0;entryPerimeter=0;" edge="1" parent="1" source="9sTnr-3qhtHR2wwVFp7q-10" target="9sTnr-3qhtHR2wwVFp7q-11">
          <mxGeometry relative="1" as="geometry" />
        </mxCell>
        <mxCell id="9sTnr-3qhtHR2wwVFp7q-28" style="edgeStyle=orthogonalEdgeStyle;rounded=0;orthogonalLoop=1;jettySize=auto;html=1;entryX=0.5;entryY=0;entryDx=0;entryDy=0;entryPerimeter=0;" edge="1" parent="1" source="9sTnr-3qhtHR2wwVFp7q-9" target="9sTnr-3qhtHR2wwVFp7q-12">
          <mxGeometry relative="1" as="geometry" />
        </mxCell>
        <mxCell id="9sTnr-3qhtHR2wwVFp7q-30" style="edgeStyle=orthogonalEdgeStyle;rounded=0;orthogonalLoop=1;jettySize=auto;html=1;entryX=0.5;entryY=0;entryDx=0;entryDy=0;entryPerimeter=0;" edge="1" parent="1" source="9sTnr-3qhtHR2wwVFp7q-12" target="9sTnr-3qhtHR2wwVFp7q-13">
          <mxGeometry relative="1" as="geometry" />
        </mxCell>
        <mxCell id="9sTnr-3qhtHR2wwVFp7q-32" value="&lt;p style=&quot;line-height: 100%; font-size: 10px;&quot;&gt;&lt;br style=&quot;font-size: 10px;&quot;&gt;&lt;/p&gt;" style="strokeWidth=1;html=1;shape=stencil(rZXNcoMgFIWfhm2HiH2ADk2X3XTRNdHbyiSAAzRp377I1YnUnxjtTBbcc835uAdGCeOuEjWQjGqhgLBnkmWFUQq0D6sgV6jlFMtLWgpXQ+FROwsrxeEE2HHemiNcZOlbB6krsDK6sj2hT+GZ5sd4YbQOJtJol3R6/WAmZLMj+o1m9OERMT9tjVUdCAo82ES9TvaKAsleVpN2y0hvK0jpRB33Fun9ftJuHWm/mbTwlDaDlh7SBIjxoExdS8YPojh+WvOly9Ht1aK58oNG11bmDNd953QsofHJO4eT1D0Hxv7ZIV9h8WeMeYsY7yClqE5Ey/iHsTCTOb5tZoh3HUo6zLJIS+EqKMO6XfTv4YbDmIePJ3kzlPi3QaJRxa9BFH4B);align=left;labelPosition=right;pointerEvents=1;gradientColor=#ffffff;spacing=0;fontSize=10;shadow=0;spacingBottom=1;fontFamily=Times New Roman;" vertex="1" parent="1">
          <mxGeometry x="360" y="103.13" width="40" height="93.75" as="geometry" />
        </mxCell>
        <mxCell id="9sTnr-3qhtHR2wwVFp7q-33" value="Алгоритм Z-буфера&lt;br&gt;Входные параметры: объект сцены, буфер кадра, Z-буфер&amp;nbsp;&lt;div&gt;Выходные параметры: обновленный буфер кадра, обновленный Z-буфер&amp;nbsp;&lt;br&gt;&lt;/div&gt;" style="text;html=1;align=left;verticalAlign=middle;whiteSpace=wrap;rounded=0;" vertex="1" parent="1">
          <mxGeometry x="400" y="96.88" width="180" height="100" as="geometry" />
        </mxCell>
        <mxCell id="9sTnr-3qhtHR2wwVFp7q-34" style="edgeStyle=orthogonalEdgeStyle;rounded=0;orthogonalLoop=1;jettySize=auto;html=1;entryX=0.5;entryY=0;entryDx=0;entryDy=0;entryPerimeter=0;" edge="1" parent="1" source="9sTnr-3qhtHR2wwVFp7q-2" target="9sTnr-3qhtHR2wwVFp7q-10">
          <mxGeometry relative="1" as="geometry" />
        </mxCell>
      </root>
    </mxGraphModel>
  </diagram>
  <diagram id="bqT6VSh46l1ocCA-F9W7" name="Raycasting_1">
    <mxGraphModel dx="548" dy="696" grid="1" gridSize="10" guides="1" tooltips="1" connect="1" arrows="1" fold="1" page="1" pageScale="1" pageWidth="1654" pageHeight="2336" math="0" shadow="0">
      <root>
        <mxCell id="0" />
        <mxCell id="1" parent="0" />
        <mxCell id="z3jpUxBXcxBUjo_BH_Zp-1" value="Определение&amp;nbsp;" style="rounded=0;whiteSpace=wrap;html=1;" vertex="1" parent="1">
          <mxGeometry x="130" y="150" width="210" height="60" as="geometry" />
        </mxCell>
        <mxCell id="z3jpUxBXcxBUjo_BH_Zp-2" style="edgeStyle=orthogonalEdgeStyle;rounded=0;orthogonalLoop=1;jettySize=auto;html=1;exitX=0.5;exitY=1;exitDx=0;exitDy=0;entryX=0.5;entryY=0;entryDx=0;entryDy=0;" edge="1" parent="1" source="z3jpUxBXcxBUjo_BH_Zp-3" target="z3jpUxBXcxBUjo_BH_Zp-1">
          <mxGeometry relative="1" as="geometry" />
        </mxCell>
        <mxCell id="z3jpUxBXcxBUjo_BH_Zp-3" value="&lt;p style=&quot;line-height: 1;&quot;&gt;&lt;font style=&quot;font-size: 12px;&quot; face=&quot;Helvetica&quot;&gt;Начало&lt;/font&gt;&lt;/p&gt;" style="shape=stencil(vZXxboMgEMafhj9dUNwDLG57j9NelRTBIKv27YegWdHq1s3OmJD7Dn/3nZyRsKytoEGSUAk1EvZKkiTHkku7WrHySkp92PkwnmJoGyyMF8+gOeQCfaY1Wp2w4wczIrisUHMzZNkboS92z3CzrFBSWghXsg0yV3kLAy7ts7T3sLH8JYgay6/RoB5NepUk7z/HPj0/Bhw/yG+Indzv7nc/cOg4ftTB7QaOf49lmVXWhptlORSnUqsPebhp5siFKJRQ2oZ+dbVIwuh4bTfTwPDhLRJTulZn/OpydizpJntCgC5WCWOkZ1l9CWMBusTIgqKjgDJ4m22H2CzlPoKet5FWBoaXGlTbtiu4vOo4vm34jo7nhPQPPdN/6fmuU3bTuxgip65Mrp1ZpfGbkfa/hY2qqxtc6UUFp/o/mBM+AQ==);whiteSpace=wrap;html=1;aspect=fixed;fontFamily=Times New Roman;fontSize=10;spacingBottom=4;" vertex="1" parent="1">
          <mxGeometry x="130" y="70" width="210" height="60" as="geometry" />
        </mxCell>
        <mxCell id="C1GoK0iYeQlJtS9CJ57v-4" style="edgeStyle=orthogonalEdgeStyle;rounded=0;orthogonalLoop=1;jettySize=auto;html=1;entryX=0.5;entryY=0;entryDx=0;entryDy=0;" edge="1" parent="1" source="NCCnEN5Glyrj1XGEuxJx-1" target="NCCnEN5Glyrj1XGEuxJx-2">
          <mxGeometry relative="1" as="geometry" />
        </mxCell>
        <mxCell id="NCCnEN5Glyrj1XGEuxJx-1" value="&lt;p style=&quot;line-height: 1&quot;&gt;&lt;font face=&quot;Helvetica&quot;&gt;&lt;span style=&quot;font-size: 12px;&quot;&gt;Для каждого пикселя&lt;/span&gt;&lt;/font&gt;&lt;/p&gt;" style="strokeWidth=1;html=1;shape=stencil(rVXBUoMwFPyaXJmQ1EOPivXoxYPnlD5LpiEvE7C1f2/gwQgCbU1lmIG3C7t5ZBOYzKpCOWCCW1UCk89MCIPonmCvbbgPREHoilN5ojLta1U5yGsCj8prtTVATFV7PMBJ7+pOQtsCvK4bVm4YfwzPNKfMcrQ2iGi01YgZ8EFMaRve5V8kxpMHsjl3NVUuOJRQgx+hP829EsDES7RTepvTW4TTuKPe95rT+9+d0jinTczX478mKknXN85VRGM8WUfbLXQns4AsRVRmW5Uf9h4/7W52kB/amBwN+lDStTVjQvLuuNykU83ymRA9XeIRBtM6uybmpXsFo+1QQdwv0W8N5/Gg7tFYRYzjvxWi+oj4mrnBCi4kIuCTULToQhJDBtHDlYjSZr2U/olAi9KvowW+AQ==);whiteSpace=wrap;fontSize=10;fontFamily=Times New Roman;spacingLeft=10;spacingRight=10;spacingBottom=4;aspect=fixed;" vertex="1" parent="1">
          <mxGeometry x="130" y="230" width="210" height="60" as="geometry" />
        </mxCell>
        <mxCell id="C1GoK0iYeQlJtS9CJ57v-5" style="edgeStyle=orthogonalEdgeStyle;rounded=0;orthogonalLoop=1;jettySize=auto;html=1;entryX=0.5;entryY=0;entryDx=0;entryDy=0;" edge="1" parent="1" source="NCCnEN5Glyrj1XGEuxJx-2" target="NCCnEN5Glyrj1XGEuxJx-3">
          <mxGeometry relative="1" as="geometry" />
        </mxCell>
        <mxCell id="NCCnEN5Glyrj1XGEuxJx-2" value="&lt;span style=&quot;color: rgb(64, 64, 64); text-align: left;&quot;&gt;&lt;font style=&quot;font-size: 12px;&quot; face=&quot;Helvetica&quot;&gt;Генерация луча&lt;/font&gt;&lt;/span&gt;" style="rounded=0;whiteSpace=wrap;html=1;shape=label;backgroundOutline=1;" vertex="1" parent="1">
          <mxGeometry x="130" y="310" width="210" height="60" as="geometry" />
        </mxCell>
        <mxCell id="C1GoK0iYeQlJtS9CJ57v-6" style="edgeStyle=orthogonalEdgeStyle;rounded=0;orthogonalLoop=1;jettySize=auto;html=1;exitX=0.5;exitY=1;exitDx=0;exitDy=0;" edge="1" parent="1" source="NCCnEN5Glyrj1XGEuxJx-3" target="NCCnEN5Glyrj1XGEuxJx-4">
          <mxGeometry relative="1" as="geometry" />
        </mxCell>
        <mxCell id="NCCnEN5Glyrj1XGEuxJx-3" value="Трассировка луча" style="rounded=0;whiteSpace=wrap;html=1;shape=label;backgroundOutline=1;" vertex="1" parent="1">
          <mxGeometry x="130" y="390" width="210" height="60" as="geometry" />
        </mxCell>
        <mxCell id="NCCnEN5Glyrj1XGEuxJx-4" value="Установка цвета пикселя" style="rounded=0;whiteSpace=wrap;html=1;shape=label;backgroundOutline=1;" vertex="1" parent="1">
          <mxGeometry x="130" y="470" width="210" height="60" as="geometry" />
        </mxCell>
        <mxCell id="C1GoK0iYeQlJtS9CJ57v-8" style="edgeStyle=orthogonalEdgeStyle;rounded=0;orthogonalLoop=1;jettySize=auto;html=1;exitX=0.5;exitY=1;exitDx=0;exitDy=0;exitPerimeter=0;entryX=0.5;entryY=0;entryDx=0;entryDy=0;" edge="1" parent="1" source="C1GoK0iYeQlJtS9CJ57v-1" target="C1GoK0iYeQlJtS9CJ57v-2">
          <mxGeometry relative="1" as="geometry" />
        </mxCell>
        <mxCell id="C1GoK0iYeQlJtS9CJ57v-1" value="&lt;span style=&quot;font-family: Helvetica; font-size: 12px;&quot;&gt;Для каждого пикселя&lt;/span&gt;" style="strokeWidth=1;html=1;shape=stencil(rVTBUoMwEP2aXJmQtDN6dBCPvXjwnNJVMk2zTMBW/96FBS0itEYZZmDfwnt52d0IndWlqUAo6c0BhL4XSjnEKvc7eiO4ZGwlOTxxmA6xqSsoGgaPJlizdcCZugm4h5PdNT2F9SUE27RZnQt5R9+0t84K9J5ILPp6lDnLE5mxnv6Vb0wmkzXLvPcxRxUpHKCBMEK/rG0YEOohWim9TukxQmnsaNC9pPT0e6U0TimP2T35rVDJzZU7uIkwJpPbaLkZdzojZK5FdbY1xf4l4CvNy0+LfLbOFegwUMjPTkwoLftr2WRl2vGZJIb0AY8w20BLzAOBs/6M4HOs/49CrSM41LiIq5h1/J0ixkjhsIaFehI+KWmHzvQRdRAGuNBgfNTO9e6EoEP52O+ADw==);whiteSpace=wrap;fontSize=10;fontFamily=Times New Roman;spacingLeft=10;spacingRight=10;spacingBottom=4;aspect=fixed;" vertex="1" parent="1">
          <mxGeometry x="130" y="550" width="210" height="60" as="geometry" />
        </mxCell>
        <mxCell id="C1GoK0iYeQlJtS9CJ57v-2" value="&lt;p style=&quot;line-height: 1;&quot;&gt;&lt;font style=&quot;font-size: 12px;&quot; face=&quot;Helvetica&quot;&gt;Начало&lt;/font&gt;&lt;/p&gt;" style="shape=stencil(vZXxboMgEMafhj9dUNwDLG57j9NelRTBIKv27YegWdHq1s3OmJD7Dn/3nZyRsKytoEGSUAk1EvZKkiTHkku7WrHySkp92PkwnmJoGyyMF8+gOeQCfaY1Wp2w4wczIrisUHMzZNkboS92z3CzrFBSWghXsg0yV3kLAy7ts7T3sLH8JYgay6/RoB5NepUk7z/HPj0/Bhw/yG+Indzv7nc/cOg4ftTB7QaOf49lmVXWhptlORSnUqsPebhp5siFKJRQ2oZ+dbVIwuh4bTfTwPDhLRJTulZn/OpydizpJntCgC5WCWOkZ1l9CWMBusTIgqKjgDJ4m22H2CzlPoKet5FWBoaXGlTbtiu4vOo4vm34jo7nhPQPPdN/6fmuU3bTuxgip65Mrp1ZpfGbkfa/hY2qqxtc6UUFp/o/mBM+AQ==);whiteSpace=wrap;html=1;aspect=fixed;fontFamily=Times New Roman;fontSize=10;spacingBottom=4;" vertex="1" parent="1">
          <mxGeometry x="130" y="630" width="210" height="60" as="geometry" />
        </mxCell>
        <mxCell id="C1GoK0iYeQlJtS9CJ57v-3" style="edgeStyle=orthogonalEdgeStyle;rounded=0;orthogonalLoop=1;jettySize=auto;html=1;entryX=0.5;entryY=0;entryDx=0;entryDy=0;entryPerimeter=0;" edge="1" parent="1" source="z3jpUxBXcxBUjo_BH_Zp-1" target="NCCnEN5Glyrj1XGEuxJx-1">
          <mxGeometry relative="1" as="geometry" />
        </mxCell>
        <mxCell id="C1GoK0iYeQlJtS9CJ57v-7" style="edgeStyle=orthogonalEdgeStyle;rounded=0;orthogonalLoop=1;jettySize=auto;html=1;exitX=0.5;exitY=1;exitDx=0;exitDy=0;entryX=0.5;entryY=0;entryDx=0;entryDy=0;entryPerimeter=0;" edge="1" parent="1" source="NCCnEN5Glyrj1XGEuxJx-4" target="C1GoK0iYeQlJtS9CJ57v-1">
          <mxGeometry relative="1" as="geometry" />
        </mxCell>
        <mxCell id="EQhgV5JyZfUAA8mnSy---1" value="&lt;span style=&quot;color: rgb(64, 64, 64); font-family: Helvetica; font-size: 12px; font-style: normal; font-variant-ligatures: normal; font-variant-caps: normal; font-weight: 400; letter-spacing: normal; orphans: 2; text-align: left; text-indent: 0px; text-transform: none; widows: 2; word-spacing: 0px; -webkit-text-stroke-width: 0px; white-space: normal; background-color: rgb(251, 251, 251); text-decoration-thickness: initial; text-decoration-style: initial; text-decoration-color: initial; display: inline !important; float: none;&quot;&gt;Создается луч из камеры через пиксель в сцену&lt;/span&gt;" style="text;whiteSpace=wrap;html=1;" vertex="1" parent="1">
          <mxGeometry x="380" y="320" width="150" height="40" as="geometry" />
        </mxCell>
        <mxCell id="EQhgV5JyZfUAA8mnSy---2" value="&lt;p style=&quot;line-height: 100%; font-size: 10px;&quot;&gt;&lt;br style=&quot;font-size: 10px;&quot;&gt;&lt;/p&gt;" style="strokeWidth=1;html=1;shape=stencil(rZXNcoMgFIWfhm2HiH2ADk2X3XTRNdHbyiSAAzRp377I1YnUnxjtTBbcc835uAdGCeOuEjWQjGqhgLBnkmWFUQq0D6sgV6jlFMtLWgpXQ+FROwsrxeEE2HHemiNcZOlbB6krsDK6sj2hT+GZ5sd4YbQOJtJol3R6/WAmZLMj+o1m9OERMT9tjVUdCAo82ES9TvaKAsleVpN2y0hvK0jpRB33Fun9ftJuHWm/mbTwlDaDlh7SBIjxoExdS8YPojh+WvOly9Ht1aK58oNG11bmDNd953QsofHJO4eT1D0Hxv7ZIV9h8WeMeYsY7yClqE5Ey/iHsTCTOb5tZoh3HUo6zLJIS+EqKMO6XfTv4YbDmIePJ3kzlPi3QaJRxa9BFH4B);align=left;labelPosition=right;pointerEvents=1;gradientColor=#ffffff;spacing=0;fontSize=10;shadow=0;spacingBottom=1;fontFamily=Times New Roman;" vertex="1" parent="1">
          <mxGeometry x="340" y="312.5" width="40" height="55" as="geometry" />
        </mxCell>
        <mxCell id="EQhgV5JyZfUAA8mnSy---3" value="&lt;span style=&quot;color: rgb(64, 64, 64); font-family: Helvetica; font-size: 12px; font-style: normal; font-variant-ligatures: normal; font-variant-caps: normal; font-weight: 400; letter-spacing: normal; orphans: 2; text-align: left; text-indent: 0px; text-transform: none; widows: 2; word-spacing: 0px; -webkit-text-stroke-width: 0px; white-space: normal; background-color: rgb(251, 251, 251); text-decoration-thickness: initial; text-decoration-style: initial; text-decoration-color: initial; display: inline !important; float: none;&quot;&gt;Проверка пересечения луча с объектами сцены&lt;/span&gt;" style="text;whiteSpace=wrap;html=1;" vertex="1" parent="1">
          <mxGeometry x="380" y="400" width="150" height="40" as="geometry" />
        </mxCell>
        <mxCell id="EQhgV5JyZfUAA8mnSy---4" value="&lt;p style=&quot;line-height: 100%; font-size: 10px;&quot;&gt;&lt;br style=&quot;font-size: 10px;&quot;&gt;&lt;/p&gt;" style="strokeWidth=1;html=1;shape=stencil(rZXNcoMgFIWfhm2HiH2ADk2X3XTRNdHbyiSAAzRp377I1YnUnxjtTBbcc835uAdGCeOuEjWQjGqhgLBnkmWFUQq0D6sgV6jlFMtLWgpXQ+FROwsrxeEE2HHemiNcZOlbB6krsDK6sj2hT+GZ5sd4YbQOJtJol3R6/WAmZLMj+o1m9OERMT9tjVUdCAo82ES9TvaKAsleVpN2y0hvK0jpRB33Fun9ftJuHWm/mbTwlDaDlh7SBIjxoExdS8YPojh+WvOly9Ht1aK58oNG11bmDNd953QsofHJO4eT1D0Hxv7ZIV9h8WeMeYsY7yClqE5Ey/iHsTCTOb5tZoh3HUo6zLJIS+EqKMO6XfTv4YbDmIePJ3kzlPi3QaJRxa9BFH4B);align=left;labelPosition=right;pointerEvents=1;gradientColor=#ffffff;spacing=0;fontSize=10;shadow=0;spacingBottom=1;fontFamily=Times New Roman;" vertex="1" parent="1">
          <mxGeometry x="340" y="392.5" width="40" height="55" as="geometry" />
        </mxCell>
        <mxCell id="5jhFRuuMYy4l6wjjo_lm-1" value="&lt;p style=&quot;line-height: 100%; font-size: 10px;&quot;&gt;&lt;br style=&quot;font-size: 10px;&quot;&gt;&lt;/p&gt;" style="strokeWidth=1;html=1;shape=stencil(rZXNcoMgFIWfhm2HiH2ADk2X3XTRNdHbyiSAAzRp377I1YnUnxjtTBbcc835uAdGCeOuEjWQjGqhgLBnkmWFUQq0D6sgV6jlFMtLWgpXQ+FROwsrxeEE2HHemiNcZOlbB6krsDK6sj2hT+GZ5sd4YbQOJtJol3R6/WAmZLMj+o1m9OERMT9tjVUdCAo82ES9TvaKAsleVpN2y0hvK0jpRB33Fun9ftJuHWm/mbTwlDaDlh7SBIjxoExdS8YPojh+WvOly9Ht1aK58oNG11bmDNd953QsofHJO4eT1D0Hxv7ZIV9h8WeMeYsY7yClqE5Ey/iHsTCTOb5tZoh3HUo6zLJIS+EqKMO6XfTv4YbDmIePJ3kzlPi3QaJRxa9BFH4B);align=left;labelPosition=right;pointerEvents=1;gradientColor=#ffffff;spacing=0;fontSize=10;shadow=0;spacingBottom=1;fontFamily=Times New Roman;" vertex="1" parent="1">
          <mxGeometry x="340" y="53.13" width="40" height="93.75" as="geometry" />
        </mxCell>
        <mxCell id="5jhFRuuMYy4l6wjjo_lm-2" value="Алгоритм Raycasting&lt;br&gt;Входные параметры: объекты сцены, источник света&lt;div&gt;Выходные параметры: двумерный массив пикселей&lt;br&gt;&lt;/div&gt;" style="text;html=1;align=left;verticalAlign=middle;whiteSpace=wrap;rounded=0;" vertex="1" parent="1">
          <mxGeometry x="380" y="53.13" width="180" height="90" as="geometry" />
        </mxCell>
      </root>
    </mxGraphModel>
  </diagram>
  <diagram id="PpHwnF-vOCiVfNUWi9Pb" name="Wind_1">
    <mxGraphModel dx="1209" dy="1529" grid="1" gridSize="10" guides="1" tooltips="1" connect="1" arrows="1" fold="1" page="1" pageScale="1" pageWidth="1654" pageHeight="2336" math="0" shadow="0">
      <root>
        <mxCell id="0" />
        <mxCell id="1" parent="0" />
        <mxCell id="81PkjVl6WLsOI4FiLOVO-1" value="Запуск таймера" style="rounded=0;whiteSpace=wrap;html=1;" parent="1" vertex="1">
          <mxGeometry x="90" y="180" width="210" height="60" as="geometry" />
        </mxCell>
        <mxCell id="Soc19j7u6bVoP2mBb3ks-5" style="edgeStyle=orthogonalEdgeStyle;rounded=0;orthogonalLoop=1;jettySize=auto;html=1;exitX=0.5;exitY=1;exitDx=0;exitDy=0;entryX=0.5;entryY=0;entryDx=0;entryDy=0;" parent="1" source="81PkjVl6WLsOI4FiLOVO-3" target="81PkjVl6WLsOI4FiLOVO-1" edge="1">
          <mxGeometry relative="1" as="geometry" />
        </mxCell>
        <mxCell id="81PkjVl6WLsOI4FiLOVO-3" value="&lt;p style=&quot;line-height: 1;&quot;&gt;&lt;font style=&quot;font-size: 12px;&quot; face=&quot;Helvetica&quot;&gt;Начало&lt;/font&gt;&lt;/p&gt;" style="shape=stencil(vZXxboMgEMafhj9dUNwDLG57j9NelRTBIKv27YegWdHq1s3OmJD7Dn/3nZyRsKytoEGSUAk1EvZKkiTHkku7WrHySkp92PkwnmJoGyyMF8+gOeQCfaY1Wp2w4wczIrisUHMzZNkboS92z3CzrFBSWghXsg0yV3kLAy7ts7T3sLH8JYgay6/RoB5NepUk7z/HPj0/Bhw/yG+Indzv7nc/cOg4ftTB7QaOf49lmVXWhptlORSnUqsPebhp5siFKJRQ2oZ+dbVIwuh4bTfTwPDhLRJTulZn/OpydizpJntCgC5WCWOkZ1l9CWMBusTIgqKjgDJ4m22H2CzlPoKet5FWBoaXGlTbtiu4vOo4vm34jo7nhPQPPdN/6fmuU3bTuxgip65Mrp1ZpfGbkfa/hY2qqxtc6UUFp/o/mBM+AQ==);whiteSpace=wrap;html=1;aspect=fixed;fontFamily=Times New Roman;fontSize=10;spacingBottom=4;" parent="1" vertex="1">
          <mxGeometry x="90" y="100" width="210" height="60" as="geometry" />
        </mxCell>
        <mxCell id="a5AkTZR5CCDgVK7znDBV-3" style="edgeStyle=orthogonalEdgeStyle;rounded=0;orthogonalLoop=1;jettySize=auto;html=1;exitX=0.5;exitY=1;exitDx=0;exitDy=0;exitPerimeter=0;entryX=0.5;entryY=0;entryDx=0;entryDy=0;" edge="1" parent="1" source="fhKtY9cdnAlK7WPSnyFI-1" target="a5AkTZR5CCDgVK7znDBV-2">
          <mxGeometry relative="1" as="geometry" />
        </mxCell>
        <mxCell id="fhKtY9cdnAlK7WPSnyFI-1" value="&lt;p style=&quot;line-height: 1&quot;&gt;&lt;font face=&quot;Helvetica&quot;&gt;&lt;span style=&quot;font-size: 12px;&quot;&gt;Для каждого тика таймера&lt;/span&gt;&lt;/font&gt;&lt;/p&gt;" style="strokeWidth=1;html=1;shape=stencil(rVXBUoMwFPyaXJmQ1EOPivXoxYPnlD5LpiEvE7C1f2/gwQgCbU1lmIG3C7t5ZBOYzKpCOWCCW1UCk89MCIPonmCvbbgPREHoilN5ojLta1U5yGsCj8prtTVATFV7PMBJ7+pOQtsCvK4bVm4YfwzPNKfMcrQ2iGi01YgZ8EFMaRve5V8kxpMHsjl3NVUuOJRQgx+hP829EsDES7RTepvTW4TTuKPe95rT+9+d0jinTczX478mKknXN85VRGM8WUfbLXQns4AsRVRmW5Uf9h4/7W52kB/amBwN+lDStTVjQvLuuNykU83ymRA9XeIRBtM6uybmpXsFo+1QQdwv0W8N5/Gg7tFYRYzjvxWi+oj4mrnBCi4kIuCTULToQhJDBtHDlYjSZr2U/olAi9KvowW+AQ==);whiteSpace=wrap;fontSize=10;fontFamily=Times New Roman;spacingLeft=10;spacingRight=10;spacingBottom=4;aspect=fixed;" parent="1" vertex="1">
          <mxGeometry x="90" y="260" width="210" height="60" as="geometry" />
        </mxCell>
        <mxCell id="fhKtY9cdnAlK7WPSnyFI-2" value="вызвать метод ApplyBoneTransform" style="rounded=0;whiteSpace=wrap;html=1;shape=process;backgroundOutline=1;" parent="1" vertex="1">
          <mxGeometry x="90" y="580" width="210" height="60" as="geometry" />
        </mxCell>
        <mxCell id="Soc19j7u6bVoP2mBb3ks-8" style="edgeStyle=orthogonalEdgeStyle;rounded=0;orthogonalLoop=1;jettySize=auto;html=1;exitX=0.5;exitY=1;exitDx=0;exitDy=0;exitPerimeter=0;entryX=0.5;entryY=0;entryDx=0;entryDy=0;" parent="1" source="fhKtY9cdnAlK7WPSnyFI-3" target="fhKtY9cdnAlK7WPSnyFI-2" edge="1">
          <mxGeometry relative="1" as="geometry" />
        </mxCell>
        <mxCell id="fhKtY9cdnAlK7WPSnyFI-3" value="&lt;p style=&quot;line-height: 1&quot;&gt;&lt;font face=&quot;Helvetica&quot;&gt;&lt;span style=&quot;font-size: 12px;&quot;&gt;Для каждой кости&lt;/span&gt;&lt;/font&gt;&lt;/p&gt;" style="strokeWidth=1;html=1;shape=stencil(rVXBUoMwFPyaXJmQ1EOPivXoxYPnlD5LpiEvE7C1f2/gwQgCbU1lmIG3C7t5ZBOYzKpCOWCCW1UCk89MCIPonmCvbbgPREHoilN5ojLta1U5yGsCj8prtTVATFV7PMBJ7+pOQtsCvK4bVm4YfwzPNKfMcrQ2iGi01YgZ8EFMaRve5V8kxpMHsjl3NVUuOJRQgx+hP829EsDES7RTepvTW4TTuKPe95rT+9+d0jinTczX478mKknXN85VRGM8WUfbLXQns4AsRVRmW5Uf9h4/7W52kB/amBwN+lDStTVjQvLuuNykU83ymRA9XeIRBtM6uybmpXsFo+1QQdwv0W8N5/Gg7tFYRYzjvxWi+oj4mrnBCi4kIuCTULToQhJDBtHDlYjSZr2U/olAi9KvowW+AQ==);whiteSpace=wrap;fontSize=10;fontFamily=Times New Roman;spacingLeft=10;spacingRight=10;spacingBottom=4;aspect=fixed;" parent="1" vertex="1">
          <mxGeometry x="90" y="500" width="210" height="60" as="geometry" />
        </mxCell>
        <mxCell id="Soc19j7u6bVoP2mBb3ks-6" style="edgeStyle=orthogonalEdgeStyle;rounded=0;orthogonalLoop=1;jettySize=auto;html=1;exitX=0.5;exitY=1;exitDx=0;exitDy=0;entryX=0.5;entryY=0;entryDx=0;entryDy=0;entryPerimeter=0;" parent="1" source="81PkjVl6WLsOI4FiLOVO-1" target="fhKtY9cdnAlK7WPSnyFI-1" edge="1">
          <mxGeometry relative="1" as="geometry" />
        </mxCell>
        <mxCell id="jAA8HIqPy8SLP7Wtx08l-1" value="&lt;p style=&quot;line-height: 100%; font-size: 10px;&quot;&gt;&lt;br style=&quot;font-size: 10px;&quot;&gt;&lt;/p&gt;" style="strokeWidth=1;html=1;shape=stencil(rZXNcoMgFIWfhm2HiH2ADk2X3XTRNdHbyiSAAzRp377I1YnUnxjtTBbcc835uAdGCeOuEjWQjGqhgLBnkmWFUQq0D6sgV6jlFMtLWgpXQ+FROwsrxeEE2HHemiNcZOlbB6krsDK6sj2hT+GZ5sd4YbQOJtJol3R6/WAmZLMj+o1m9OERMT9tjVUdCAo82ES9TvaKAsleVpN2y0hvK0jpRB33Fun9ftJuHWm/mbTwlDaDlh7SBIjxoExdS8YPojh+WvOly9Ht1aK58oNG11bmDNd953QsofHJO4eT1D0Hxv7ZIV9h8WeMeYsY7yClqE5Ey/iHsTCTOb5tZoh3HUo6zLJIS+EqKMO6XfTv4YbDmIePJ3kzlPi3QaJRxa9BFH4B);align=left;labelPosition=right;pointerEvents=1;gradientColor=#ffffff;spacing=0;fontSize=10;shadow=0;spacingBottom=1;fontFamily=Times New Roman;" parent="1" vertex="1">
          <mxGeometry x="300" y="83.12" width="40" height="93.75" as="geometry" />
        </mxCell>
        <mxCell id="jAA8HIqPy8SLP7Wtx08l-2" value="Алгоритм реализации ветра&lt;br&gt;Входные параметры: объект сцены, набор исходных позиций объекта&lt;div&gt;Выходные параметры: обновленный&amp;nbsp;&lt;span style=&quot;background-color: initial;&quot;&gt;объект сцены&lt;/span&gt;&lt;br&gt;&lt;/div&gt;" style="text;html=1;align=left;verticalAlign=middle;whiteSpace=wrap;rounded=0;" parent="1" vertex="1">
          <mxGeometry x="340" y="76.87" width="180" height="100" as="geometry" />
        </mxCell>
        <mxCell id="a5AkTZR5CCDgVK7znDBV-5" style="edgeStyle=orthogonalEdgeStyle;rounded=0;orthogonalLoop=1;jettySize=auto;html=1;exitX=0.5;exitY=1;exitDx=0;exitDy=0;entryX=0.5;entryY=0;entryDx=0;entryDy=0;" edge="1" parent="1" source="a5AkTZR5CCDgVK7znDBV-2" target="a5AkTZR5CCDgVK7znDBV-4">
          <mxGeometry relative="1" as="geometry" />
        </mxCell>
        <mxCell id="a5AkTZR5CCDgVK7znDBV-2" value="Вычисление силы ветра" style="rounded=0;whiteSpace=wrap;html=1;" vertex="1" parent="1">
          <mxGeometry x="90" y="340" width="210" height="60" as="geometry" />
        </mxCell>
        <mxCell id="a5AkTZR5CCDgVK7znDBV-4" value="Инициализация словаря&amp;nbsp;boneTransforms для хранения трансформаций костей" style="rounded=0;whiteSpace=wrap;html=1;" vertex="1" parent="1">
          <mxGeometry x="90" y="420" width="210" height="60" as="geometry" />
        </mxCell>
        <mxCell id="a5AkTZR5CCDgVK7znDBV-6" style="edgeStyle=orthogonalEdgeStyle;rounded=0;orthogonalLoop=1;jettySize=auto;html=1;exitX=0.5;exitY=1;exitDx=0;exitDy=0;entryX=0.5;entryY=0;entryDx=0;entryDy=0;entryPerimeter=0;" edge="1" parent="1" source="a5AkTZR5CCDgVK7znDBV-4" target="fhKtY9cdnAlK7WPSnyFI-3">
          <mxGeometry relative="1" as="geometry" />
        </mxCell>
        <mxCell id="r4TcMVfdN87-N0JbMsai-67" style="edgeStyle=orthogonalEdgeStyle;rounded=0;orthogonalLoop=1;jettySize=auto;html=1;" edge="1" parent="1" source="a5AkTZR5CCDgVK7znDBV-7" target="r4TcMVfdN87-N0JbMsai-64">
          <mxGeometry relative="1" as="geometry" />
        </mxCell>
        <mxCell id="a5AkTZR5CCDgVK7znDBV-7" value="&lt;span style=&quot;font-family: Helvetica; font-size: 12px;&quot;&gt;Для каждой кости&lt;/span&gt;" style="strokeWidth=1;html=1;shape=stencil(rVTBUoMwEP2aXJmQtDN6dBCPvXjwnNJVMk2zTMBW/96FBS0itEYZZmDfwnt52d0IndWlqUAo6c0BhL4XSjnEKvc7eiO4ZGwlOTxxmA6xqSsoGgaPJlizdcCZugm4h5PdNT2F9SUE27RZnQt5R9+0t84K9J5ILPp6lDnLE5mxnv6Vb0wmkzXLvPcxRxUpHKCBMEK/rG0YEOohWim9TukxQmnsaNC9pPT0e6U0TimP2T35rVDJzZU7uIkwJpPbaLkZdzojZK5FdbY1xf4l4CvNy0+LfLbOFegwUMjPTkwoLftr2WRl2vGZJIb0AY8w20BLzAOBs/6M4HOs/49CrSM41LiIq5h1/J0ixkjhsIaFehI+KWmHzvQRdRAGuNBgfNTO9e6EoEP52O+ADw==);whiteSpace=wrap;fontSize=10;fontFamily=Times New Roman;spacingLeft=10;spacingRight=10;spacingBottom=4;aspect=fixed;" vertex="1" parent="1">
          <mxGeometry x="90" y="660" width="210" height="60" as="geometry" />
        </mxCell>
        <mxCell id="a5AkTZR5CCDgVK7znDBV-8" style="edgeStyle=orthogonalEdgeStyle;rounded=0;orthogonalLoop=1;jettySize=auto;html=1;exitX=0.5;exitY=1;exitDx=0;exitDy=0;entryX=0.5;entryY=0;entryDx=0;entryDy=0;entryPerimeter=0;" edge="1" parent="1" source="fhKtY9cdnAlK7WPSnyFI-2" target="a5AkTZR5CCDgVK7znDBV-7">
          <mxGeometry relative="1" as="geometry" />
        </mxCell>
        <mxCell id="r4TcMVfdN87-N0JbMsai-64" value="А" style="ellipse;whiteSpace=wrap;html=1;aspect=fixed;" vertex="1" parent="1">
          <mxGeometry x="175" y="740" width="40" height="40" as="geometry" />
        </mxCell>
      </root>
    </mxGraphModel>
  </diagram>
  <diagram name="Wind_2" id="nC50YWzj4CqXF-arCCfQ">
    <mxGraphModel dx="1360" dy="1720" grid="1" gridSize="10" guides="1" tooltips="1" connect="1" arrows="1" fold="1" page="1" pageScale="1" pageWidth="1654" pageHeight="2336" math="0" shadow="0">
      <root>
        <mxCell id="etZnO9suVlXNDIGaxunE-0" />
        <mxCell id="etZnO9suVlXNDIGaxunE-1" parent="etZnO9suVlXNDIGaxunE-0" />
        <mxCell id="etZnO9suVlXNDIGaxunE-20" style="edgeStyle=orthogonalEdgeStyle;rounded=0;orthogonalLoop=1;jettySize=auto;html=1;endArrow=none;endFill=0;startArrow=classic;startFill=1;" edge="1" parent="etZnO9suVlXNDIGaxunE-1" source="etZnO9suVlXNDIGaxunE-21">
          <mxGeometry relative="1" as="geometry">
            <mxPoint x="285" y="848" as="targetPoint" />
          </mxGeometry>
        </mxCell>
        <mxCell id="etZnO9suVlXNDIGaxunE-21" value="Обновить позицию вершины на основе transformedVertex" style="rounded=0;whiteSpace=wrap;html=1;" vertex="1" parent="etZnO9suVlXNDIGaxunE-1">
          <mxGeometry x="180" y="868" width="210" height="60" as="geometry" />
        </mxCell>
        <mxCell id="etZnO9suVlXNDIGaxunE-22" value="&lt;p style=&quot;line-height: 1;&quot;&gt;&lt;font style=&quot;font-size: 12px;&quot; face=&quot;Helvetica&quot;&gt;Конец&lt;/font&gt;&lt;/p&gt;" style="shape=stencil(vZXxboMgEMafhj9dUNwDLG57j9NelRTBIKv27YegWdHq1s3OmJD7Dn/3nZyRsKytoEGSUAk1EvZKkiTHkku7WrHySkp92PkwnmJoGyyMF8+gOeQCfaY1Wp2w4wczIrisUHMzZNkboS92z3CzrFBSWghXsg0yV3kLAy7ts7T3sLH8JYgay6/RoB5NepUk7z/HPj0/Bhw/yG+Indzv7nc/cOg4ftTB7QaOf49lmVXWhptlORSnUqsPebhp5siFKJRQ2oZ+dbVIwuh4bTfTwPDhLRJTulZn/OpydizpJntCgC5WCWOkZ1l9CWMBusTIgqKjgDJ4m22H2CzlPoKet5FWBoaXGlTbtiu4vOo4vm34jo7nhPQPPdN/6fmuU3bTuxgip65Mrp1ZpfGbkfa/hY2qqxtc6UUFp/o/mBM+AQ==);whiteSpace=wrap;html=1;aspect=fixed;fontFamily=Times New Roman;fontSize=10;spacingBottom=4;" vertex="1" parent="etZnO9suVlXNDIGaxunE-1">
          <mxGeometry x="180" y="1108" width="210" height="60" as="geometry" />
        </mxCell>
        <mxCell id="etZnO9suVlXNDIGaxunE-23" style="edgeStyle=orthogonalEdgeStyle;rounded=0;orthogonalLoop=1;jettySize=auto;html=1;entryX=0.5;entryY=0;entryDx=0;entryDy=0;" edge="1" parent="etZnO9suVlXNDIGaxunE-1" source="etZnO9suVlXNDIGaxunE-24" target="etZnO9suVlXNDIGaxunE-26">
          <mxGeometry relative="1" as="geometry" />
        </mxCell>
        <mxCell id="etZnO9suVlXNDIGaxunE-24" value="&lt;p style=&quot;line-height: 1&quot;&gt;&lt;font face=&quot;Helvetica&quot;&gt;&lt;span style=&quot;font-size: 12px;&quot;&gt;Для каждой вершины&lt;/span&gt;&lt;/font&gt;&lt;/p&gt;" style="strokeWidth=1;html=1;shape=stencil(rVXBUoMwFPyaXJmQ1EOPivXoxYPnlD5LpiEvE7C1f2/gwQgCbU1lmIG3C7t5ZBOYzKpCOWCCW1UCk89MCIPonmCvbbgPREHoilN5ojLta1U5yGsCj8prtTVATFV7PMBJ7+pOQtsCvK4bVm4YfwzPNKfMcrQ2iGi01YgZ8EFMaRve5V8kxpMHsjl3NVUuOJRQgx+hP829EsDES7RTepvTW4TTuKPe95rT+9+d0jinTczX478mKknXN85VRGM8WUfbLXQns4AsRVRmW5Uf9h4/7W52kB/amBwN+lDStTVjQvLuuNykU83ymRA9XeIRBtM6uybmpXsFo+1QQdwv0W8N5/Gg7tFYRYzjvxWi+oj4mrnBCi4kIuCTULToQhJDBtHDlYjSZr2U/olAi9KvowW+AQ==);whiteSpace=wrap;fontSize=10;fontFamily=Times New Roman;spacingLeft=10;spacingRight=10;spacingBottom=4;aspect=fixed;" vertex="1" parent="etZnO9suVlXNDIGaxunE-1">
          <mxGeometry x="170" y="138" width="210" height="60" as="geometry" />
        </mxCell>
        <mxCell id="etZnO9suVlXNDIGaxunE-25" style="edgeStyle=orthogonalEdgeStyle;rounded=0;orthogonalLoop=1;jettySize=auto;html=1;entryX=0.5;entryY=0;entryDx=0;entryDy=0;" edge="1" parent="etZnO9suVlXNDIGaxunE-1" source="etZnO9suVlXNDIGaxunE-26" target="etZnO9suVlXNDIGaxunE-28">
          <mxGeometry relative="1" as="geometry" />
        </mxCell>
        <mxCell id="etZnO9suVlXNDIGaxunE-26" value="Получить исходную позицию вершины" style="rounded=0;whiteSpace=wrap;html=1;" vertex="1" parent="etZnO9suVlXNDIGaxunE-1">
          <mxGeometry x="170" y="218" width="210" height="60" as="geometry" />
        </mxCell>
        <mxCell id="etZnO9suVlXNDIGaxunE-27" style="edgeStyle=orthogonalEdgeStyle;rounded=0;orthogonalLoop=1;jettySize=auto;html=1;exitX=0.5;exitY=1;exitDx=0;exitDy=0;entryX=0.5;entryY=0;entryDx=0;entryDy=0;" edge="1" parent="etZnO9suVlXNDIGaxunE-1" source="etZnO9suVlXNDIGaxunE-28" target="etZnO9suVlXNDIGaxunE-31">
          <mxGeometry relative="1" as="geometry" />
        </mxCell>
        <mxCell id="etZnO9suVlXNDIGaxunE-28" value="Инициализировать переменную transformedVertex как нулевой вектор" style="rounded=0;whiteSpace=wrap;html=1;" vertex="1" parent="etZnO9suVlXNDIGaxunE-1">
          <mxGeometry x="170" y="298" width="210" height="60" as="geometry" />
        </mxCell>
        <mxCell id="etZnO9suVlXNDIGaxunE-29" style="edgeStyle=orthogonalEdgeStyle;rounded=0;orthogonalLoop=1;jettySize=auto;html=1;entryX=0.5;entryY=0;entryDx=0;entryDy=0;entryPerimeter=0;" edge="1" parent="etZnO9suVlXNDIGaxunE-1" source="etZnO9suVlXNDIGaxunE-31" target="etZnO9suVlXNDIGaxunE-34">
          <mxGeometry relative="1" as="geometry">
            <mxPoint x="515" y="458" as="targetPoint" />
          </mxGeometry>
        </mxCell>
        <mxCell id="etZnO9suVlXNDIGaxunE-30" value="да" style="edgeLabel;html=1;align=center;verticalAlign=middle;resizable=0;points=[];" vertex="1" connectable="0" parent="etZnO9suVlXNDIGaxunE-29">
          <mxGeometry x="0.2099" y="4" relative="1" as="geometry">
            <mxPoint x="3" y="-6" as="offset" />
          </mxGeometry>
        </mxCell>
        <mxCell id="etZnO9suVlXNDIGaxunE-31" value="Вершина связана с костями?" style="rhombus;whiteSpace=wrap;html=1;" vertex="1" parent="etZnO9suVlXNDIGaxunE-1">
          <mxGeometry x="170" y="378" width="210" height="80" as="geometry" />
        </mxCell>
        <mxCell id="etZnO9suVlXNDIGaxunE-32" value="&lt;span style=&quot;font-family: Helvetica; font-size: 12px;&quot;&gt;Для каждой вершины&lt;/span&gt;" style="strokeWidth=1;html=1;shape=stencil(rVTBUoMwEP2aXJmQtDN6dBCPvXjwnNJVMk2zTMBW/96FBS0itEYZZmDfwnt52d0IndWlqUAo6c0BhL4XSjnEKvc7eiO4ZGwlOTxxmA6xqSsoGgaPJlizdcCZugm4h5PdNT2F9SUE27RZnQt5R9+0t84K9J5ILPp6lDnLE5mxnv6Vb0wmkzXLvPcxRxUpHKCBMEK/rG0YEOohWim9TukxQmnsaNC9pPT0e6U0TimP2T35rVDJzZU7uIkwJpPbaLkZdzojZK5FdbY1xf4l4CvNy0+LfLbOFegwUMjPTkwoLftr2WRl2vGZJIb0AY8w20BLzAOBs/6M4HOs/49CrSM41LiIq5h1/J0ixkjhsIaFehI+KWmHzvQRdRAGuNBgfNTO9e6EoEP52O+ADw==);whiteSpace=wrap;fontSize=10;fontFamily=Times New Roman;spacingLeft=10;spacingRight=10;spacingBottom=4;aspect=fixed;" vertex="1" parent="etZnO9suVlXNDIGaxunE-1">
          <mxGeometry x="180" y="948" width="210" height="60" as="geometry" />
        </mxCell>
        <mxCell id="etZnO9suVlXNDIGaxunE-33" style="edgeStyle=orthogonalEdgeStyle;rounded=0;orthogonalLoop=1;jettySize=auto;html=1;exitX=0.5;exitY=1;exitDx=0;exitDy=0;exitPerimeter=0;entryX=0.5;entryY=0;entryDx=0;entryDy=0;" edge="1" parent="etZnO9suVlXNDIGaxunE-1" source="etZnO9suVlXNDIGaxunE-34" target="etZnO9suVlXNDIGaxunE-38">
          <mxGeometry relative="1" as="geometry" />
        </mxCell>
        <mxCell id="etZnO9suVlXNDIGaxunE-34" value="&lt;p style=&quot;line-height: 1&quot;&gt;&lt;font face=&quot;Helvetica&quot;&gt;&lt;span style=&quot;font-size: 12px;&quot;&gt;Для каждой связанной кости и её веса&lt;/span&gt;&lt;/font&gt;&lt;br&gt;&lt;/p&gt;" style="strokeWidth=1;html=1;shape=stencil(rVXBUoMwFPyaXJmQ1EOPivXoxYPnlD5LpiEvE7C1f2/gwQgCbU1lmIG3C7t5ZBOYzKpCOWCCW1UCk89MCIPonmCvbbgPREHoilN5ojLta1U5yGsCj8prtTVATFV7PMBJ7+pOQtsCvK4bVm4YfwzPNKfMcrQ2iGi01YgZ8EFMaRve5V8kxpMHsjl3NVUuOJRQgx+hP829EsDES7RTepvTW4TTuKPe95rT+9+d0jinTczX478mKknXN85VRGM8WUfbLXQns4AsRVRmW5Uf9h4/7W52kB/amBwN+lDStTVjQvLuuNykU83ymRA9XeIRBtM6uybmpXsFo+1QQdwv0W8N5/Gg7tFYRYzjvxWi+oj4mrnBCi4kIuCTULToQhJDBtHDlYjSZr2U/olAi9KvowW+AQ==);whiteSpace=wrap;fontSize=10;fontFamily=Times New Roman;spacingLeft=10;spacingRight=10;spacingBottom=4;aspect=fixed;" vertex="1" parent="etZnO9suVlXNDIGaxunE-1">
          <mxGeometry x="400" y="438" width="210" height="60" as="geometry" />
        </mxCell>
        <mxCell id="etZnO9suVlXNDIGaxunE-35" style="edgeStyle=orthogonalEdgeStyle;rounded=0;orthogonalLoop=1;jettySize=auto;html=1;exitX=1;exitY=0.5;exitDx=0;exitDy=0;entryX=0.5;entryY=0;entryDx=0;entryDy=0;" edge="1" parent="etZnO9suVlXNDIGaxunE-1" source="etZnO9suVlXNDIGaxunE-38" target="etZnO9suVlXNDIGaxunE-40">
          <mxGeometry relative="1" as="geometry" />
        </mxCell>
        <mxCell id="etZnO9suVlXNDIGaxunE-36" value="да" style="edgeLabel;html=1;align=center;verticalAlign=middle;resizable=0;points=[];" vertex="1" connectable="0" parent="etZnO9suVlXNDIGaxunE-35">
          <mxGeometry x="-0.2816" y="-6" relative="1" as="geometry">
            <mxPoint x="13" y="-16" as="offset" />
          </mxGeometry>
        </mxCell>
        <mxCell id="etZnO9suVlXNDIGaxunE-37" style="edgeStyle=orthogonalEdgeStyle;rounded=0;orthogonalLoop=1;jettySize=auto;html=1;exitX=0;exitY=0.5;exitDx=0;exitDy=0;entryX=0.5;entryY=1;entryDx=0;entryDy=0;endArrow=none;endFill=0;" edge="1" parent="etZnO9suVlXNDIGaxunE-1" source="etZnO9suVlXNDIGaxunE-38" target="etZnO9suVlXNDIGaxunE-41">
          <mxGeometry relative="1" as="geometry" />
        </mxCell>
        <mxCell id="etZnO9suVlXNDIGaxunE-38" value="Кость присутствует в boneTransforms?" style="rhombus;whiteSpace=wrap;html=1;" vertex="1" parent="etZnO9suVlXNDIGaxunE-1">
          <mxGeometry x="400" y="518" width="210" height="80" as="geometry" />
        </mxCell>
        <mxCell id="etZnO9suVlXNDIGaxunE-39" style="edgeStyle=orthogonalEdgeStyle;rounded=0;orthogonalLoop=1;jettySize=auto;html=1;exitX=0.5;exitY=1;exitDx=0;exitDy=0;entryX=0.5;entryY=0;entryDx=0;entryDy=0;" edge="1" parent="etZnO9suVlXNDIGaxunE-1" source="etZnO9suVlXNDIGaxunE-40" target="etZnO9suVlXNDIGaxunE-41">
          <mxGeometry relative="1" as="geometry" />
        </mxCell>
        <mxCell id="etZnO9suVlXNDIGaxunE-40" value="Применить трансформацию к вершине" style="rounded=0;whiteSpace=wrap;html=1;" vertex="1" parent="etZnO9suVlXNDIGaxunE-1">
          <mxGeometry x="580" y="588" width="210" height="60" as="geometry" />
        </mxCell>
        <mxCell id="etZnO9suVlXNDIGaxunE-41" value="Добавить результат к transformedVertex с учётом веса" style="rounded=0;whiteSpace=wrap;html=1;" vertex="1" parent="etZnO9suVlXNDIGaxunE-1">
          <mxGeometry x="580" y="668" width="210" height="60" as="geometry" />
        </mxCell>
        <mxCell id="etZnO9suVlXNDIGaxunE-42" style="edgeStyle=orthogonalEdgeStyle;rounded=0;orthogonalLoop=1;jettySize=auto;html=1;exitX=0.5;exitY=1;exitDx=0;exitDy=0;entryX=0.5;entryY=0;entryDx=0;entryDy=0;entryPerimeter=0;" edge="1" parent="etZnO9suVlXNDIGaxunE-1" source="etZnO9suVlXNDIGaxunE-21" target="etZnO9suVlXNDIGaxunE-32">
          <mxGeometry relative="1" as="geometry" />
        </mxCell>
        <mxCell id="etZnO9suVlXNDIGaxunE-43" style="edgeStyle=orthogonalEdgeStyle;rounded=0;orthogonalLoop=1;jettySize=auto;html=1;exitX=0.5;exitY=0;exitDx=0;exitDy=0;exitPerimeter=0;endArrow=none;endFill=0;startArrow=classic;startFill=1;" edge="1" parent="etZnO9suVlXNDIGaxunE-1" source="etZnO9suVlXNDIGaxunE-44">
          <mxGeometry relative="1" as="geometry">
            <mxPoint x="505.42857142857156" y="748" as="targetPoint" />
          </mxGeometry>
        </mxCell>
        <mxCell id="etZnO9suVlXNDIGaxunE-44" value="&lt;span style=&quot;font-family: Helvetica; font-size: 12px;&quot;&gt;Для каждой вершины&lt;/span&gt;" style="strokeWidth=1;html=1;shape=stencil(rVTBUoMwEP2aXJmQtDN6dBCPvXjwnNJVMk2zTMBW/96FBS0itEYZZmDfwnt52d0IndWlqUAo6c0BhL4XSjnEKvc7eiO4ZGwlOTxxmA6xqSsoGgaPJlizdcCZugm4h5PdNT2F9SUE27RZnQt5R9+0t84K9J5ILPp6lDnLE5mxnv6Vb0wmkzXLvPcxRxUpHKCBMEK/rG0YEOohWim9TukxQmnsaNC9pPT0e6U0TimP2T35rVDJzZU7uIkwJpPbaLkZdzojZK5FdbY1xf4l4CvNy0+LfLbOFegwUMjPTkwoLftr2WRl2vGZJIb0AY8w20BLzAOBs/6M4HOs/49CrSM41LiIq5h1/J0ixkjhsIaFehI+KWmHzvQRdRAGuNBgfNTO9e6EoEP52O+ADw==);whiteSpace=wrap;fontSize=10;fontFamily=Times New Roman;spacingLeft=10;spacingRight=10;spacingBottom=4;aspect=fixed;" vertex="1" parent="etZnO9suVlXNDIGaxunE-1">
          <mxGeometry x="400" y="768" width="210" height="60" as="geometry" />
        </mxCell>
        <mxCell id="etZnO9suVlXNDIGaxunE-45" style="edgeStyle=orthogonalEdgeStyle;rounded=0;orthogonalLoop=1;jettySize=auto;html=1;exitX=0;exitY=0.5;exitDx=0;exitDy=0;entryX=0.5;entryY=1;entryDx=0;entryDy=0;entryPerimeter=0;endArrow=none;endFill=0;" edge="1" parent="etZnO9suVlXNDIGaxunE-1" source="etZnO9suVlXNDIGaxunE-31" target="etZnO9suVlXNDIGaxunE-44">
          <mxGeometry relative="1" as="geometry">
            <Array as="points">
              <mxPoint x="120" y="418" />
              <mxPoint x="120" y="848" />
              <mxPoint x="505" y="848" />
            </Array>
          </mxGeometry>
        </mxCell>
        <mxCell id="etZnO9suVlXNDIGaxunE-46" style="edgeStyle=orthogonalEdgeStyle;rounded=0;orthogonalLoop=1;jettySize=auto;html=1;exitX=0.5;exitY=1;exitDx=0;exitDy=0;exitPerimeter=0;entryX=0.5;entryY=0;entryDx=0;entryDy=0;" edge="1" parent="etZnO9suVlXNDIGaxunE-1" source="etZnO9suVlXNDIGaxunE-47" target="etZnO9suVlXNDIGaxunE-22">
          <mxGeometry relative="1" as="geometry" />
        </mxCell>
        <mxCell id="etZnO9suVlXNDIGaxunE-47" value="&lt;span style=&quot;font-family: Helvetica; font-size: 12px;&quot;&gt;Для каждого тика таймера&lt;/span&gt;" style="strokeWidth=1;html=1;shape=stencil(rVTBUoMwEP2aXJmQtDN6dBCPvXjwnNJVMk2zTMBW/96FBS0itEYZZmDfwnt52d0IndWlqUAo6c0BhL4XSjnEKvc7eiO4ZGwlOTxxmA6xqSsoGgaPJlizdcCZugm4h5PdNT2F9SUE27RZnQt5R9+0t84K9J5ILPp6lDnLE5mxnv6Vb0wmkzXLvPcxRxUpHKCBMEK/rG0YEOohWim9TukxQmnsaNC9pPT0e6U0TimP2T35rVDJzZU7uIkwJpPbaLkZdzojZK5FdbY1xf4l4CvNy0+LfLbOFegwUMjPTkwoLftr2WRl2vGZJIb0AY8w20BLzAOBs/6M4HOs/49CrSM41LiIq5h1/J0ixkjhsIaFehI+KWmHzvQRdRAGuNBgfNTO9e6EoEP52O+ADw==);whiteSpace=wrap;fontSize=10;fontFamily=Times New Roman;spacingLeft=10;spacingRight=10;spacingBottom=4;aspect=fixed;" vertex="1" parent="etZnO9suVlXNDIGaxunE-1">
          <mxGeometry x="180" y="1028" width="210" height="60" as="geometry" />
        </mxCell>
        <mxCell id="etZnO9suVlXNDIGaxunE-48" style="edgeStyle=orthogonalEdgeStyle;rounded=0;orthogonalLoop=1;jettySize=auto;html=1;exitX=0.5;exitY=1;exitDx=0;exitDy=0;exitPerimeter=0;entryX=0.5;entryY=0;entryDx=0;entryDy=0;entryPerimeter=0;" edge="1" parent="etZnO9suVlXNDIGaxunE-1" source="etZnO9suVlXNDIGaxunE-32" target="etZnO9suVlXNDIGaxunE-47">
          <mxGeometry relative="1" as="geometry" />
        </mxCell>
        <mxCell id="etZnO9suVlXNDIGaxunE-50" value="А" style="ellipse;whiteSpace=wrap;html=1;aspect=fixed;" vertex="1" parent="etZnO9suVlXNDIGaxunE-1">
          <mxGeometry x="255" y="68" width="40" height="40" as="geometry" />
        </mxCell>
        <mxCell id="etZnO9suVlXNDIGaxunE-51" style="edgeStyle=orthogonalEdgeStyle;rounded=0;orthogonalLoop=1;jettySize=auto;html=1;entryX=0.5;entryY=0;entryDx=0;entryDy=0;entryPerimeter=0;" edge="1" parent="etZnO9suVlXNDIGaxunE-1" source="etZnO9suVlXNDIGaxunE-50" target="etZnO9suVlXNDIGaxunE-24">
          <mxGeometry relative="1" as="geometry" />
        </mxCell>
      </root>
    </mxGraphModel>
  </diagram>
  <diagram name="ApplyBoneTransform" id="Fe8P8DEGDOhCWFBNb6PU">
    <mxGraphModel dx="2334" dy="860" grid="1" gridSize="10" guides="1" tooltips="1" connect="1" arrows="1" fold="1" page="1" pageScale="1" pageWidth="1654" pageHeight="2336" math="0" shadow="0">
      <root>
        <mxCell id="7D4D_Bx56o440GsSsZuF-0" />
        <mxCell id="7D4D_Bx56o440GsSsZuF-1" parent="7D4D_Bx56o440GsSsZuF-0" />
        <mxCell id="hscnJgkkREyPkx9wiB0f-0" value="&lt;span style=&quot;color: rgb(0, 0, 0); font-family: Helvetica; font-size: 12px; font-style: normal; font-variant-ligatures: normal; font-variant-caps: normal; font-weight: 400; letter-spacing: normal; orphans: 2; text-align: center; text-indent: 0px; text-transform: none; widows: 2; word-spacing: 0px; -webkit-text-stroke-width: 0px; white-space: normal; background-color: rgb(251, 251, 251); text-decoration-thickness: initial; text-decoration-style: initial; text-decoration-color: initial; display: inline !important; float: none;&quot;&gt;ApplyBoneTransform&lt;/span&gt;&lt;div&gt;&lt;span style=&quot;color: rgb(0, 0, 0); font-family: Helvetica; font-size: 12px; font-style: normal; font-variant-ligatures: normal; font-variant-caps: normal; font-weight: 400; letter-spacing: normal; orphans: 2; text-align: center; text-indent: 0px; text-transform: none; widows: 2; word-spacing: 0px; -webkit-text-stroke-width: 0px; white-space: normal; background-color: rgb(251, 251, 251); text-decoration-thickness: initial; text-decoration-style: initial; text-decoration-color: initial; display: inline !important; float: none;&quot;&gt;&lt;span style=&quot;text-align: left;&quot;&gt;Входные параметры: текущая кость, родительская кость, сила ветра, словарь матриц трансформаций&lt;/span&gt;&lt;div style=&quot;text-align: left;&quot;&gt;Выходные параметры: обновленный словарь матриц трансформаций&lt;/div&gt;&lt;/span&gt;&lt;/div&gt;" style="text;whiteSpace=wrap;html=1;" vertex="1" parent="7D4D_Bx56o440GsSsZuF-1">
          <mxGeometry x="390" y="6.88" width="210" height="100" as="geometry" />
        </mxCell>
        <mxCell id="4SogQBf6n7-kV0P4GwOn-10" style="edgeStyle=orthogonalEdgeStyle;rounded=0;orthogonalLoop=1;jettySize=auto;html=1;exitX=0.5;exitY=1;exitDx=0;exitDy=0;" edge="1" parent="7D4D_Bx56o440GsSsZuF-1" source="4SogQBf6n7-kV0P4GwOn-0" target="4SogQBf6n7-kV0P4GwOn-8">
          <mxGeometry relative="1" as="geometry" />
        </mxCell>
        <mxCell id="4SogQBf6n7-kV0P4GwOn-0" value="&lt;div&gt;Вычислить угол вращения по формуле:&lt;/div&gt;&lt;div&gt;angle = windStrength * GetBoneMultiplier(bone.Name)&lt;/div&gt;" style="rounded=0;whiteSpace=wrap;html=1;" vertex="1" parent="7D4D_Bx56o440GsSsZuF-1">
          <mxGeometry x="130" y="110" width="230" height="60" as="geometry" />
        </mxCell>
        <mxCell id="4SogQBf6n7-kV0P4GwOn-1" style="edgeStyle=orthogonalEdgeStyle;rounded=0;orthogonalLoop=1;jettySize=auto;html=1;exitX=0.5;exitY=1;exitDx=0;exitDy=0;entryX=0.5;entryY=0;entryDx=0;entryDy=0;" edge="1" parent="7D4D_Bx56o440GsSsZuF-1" source="4SogQBf6n7-kV0P4GwOn-2" target="4SogQBf6n7-kV0P4GwOn-0">
          <mxGeometry relative="1" as="geometry" />
        </mxCell>
        <mxCell id="4SogQBf6n7-kV0P4GwOn-2" value="&lt;p style=&quot;line-height: 1;&quot;&gt;&lt;font style=&quot;font-size: 12px;&quot; face=&quot;Helvetica&quot;&gt;Начало&lt;/font&gt;&lt;/p&gt;" style="shape=stencil(vZXxboMgEMafhj9dUNwDLG57j9NelRTBIKv27YegWdHq1s3OmJD7Dn/3nZyRsKytoEGSUAk1EvZKkiTHkku7WrHySkp92PkwnmJoGyyMF8+gOeQCfaY1Wp2w4wczIrisUHMzZNkboS92z3CzrFBSWghXsg0yV3kLAy7ts7T3sLH8JYgay6/RoB5NepUk7z/HPj0/Bhw/yG+Indzv7nc/cOg4ftTB7QaOf49lmVXWhptlORSnUqsPebhp5siFKJRQ2oZ+dbVIwuh4bTfTwPDhLRJTulZn/OpydizpJntCgC5WCWOkZ1l9CWMBusTIgqKjgDJ4m22H2CzlPoKet5FWBoaXGlTbtiu4vOo4vm34jo7nhPQPPdN/6fmuU3bTuxgip65Mrp1ZpfGbkfa/hY2qqxtc6UUFp/o/mBM+AQ==);whiteSpace=wrap;html=1;aspect=fixed;fontFamily=Times New Roman;fontSize=10;spacingBottom=4;" vertex="1" parent="7D4D_Bx56o440GsSsZuF-1">
          <mxGeometry x="140" y="26.879999999999995" width="210" height="60" as="geometry" />
        </mxCell>
        <mxCell id="4SogQBf6n7-kV0P4GwOn-6" value="&lt;p style=&quot;line-height: 100%; font-size: 10px;&quot;&gt;&lt;br style=&quot;font-size: 10px;&quot;&gt;&lt;/p&gt;" style="strokeWidth=1;html=1;shape=stencil(rZXNcoMgFIWfhm2HiH2ADk2X3XTRNdHbyiSAAzRp377I1YnUnxjtTBbcc835uAdGCeOuEjWQjGqhgLBnkmWFUQq0D6sgV6jlFMtLWgpXQ+FROwsrxeEE2HHemiNcZOlbB6krsDK6sj2hT+GZ5sd4YbQOJtJol3R6/WAmZLMj+o1m9OERMT9tjVUdCAo82ES9TvaKAsleVpN2y0hvK0jpRB33Fun9ftJuHWm/mbTwlDaDlh7SBIjxoExdS8YPojh+WvOly9Ht1aK58oNG11bmDNd953QsofHJO4eT1D0Hxv7ZIV9h8WeMeYsY7yClqE5Ey/iHsTCTOb5tZoh3HUo6zLJIS+EqKMO6XfTv4YbDmIePJ3kzlPi3QaJRxa9BFH4B);align=left;labelPosition=right;pointerEvents=1;gradientColor=#ffffff;spacing=0;fontSize=10;shadow=0;spacingBottom=1;fontFamily=Times New Roman;" vertex="1" parent="7D4D_Bx56o440GsSsZuF-1">
          <mxGeometry x="350" y="10" width="40" height="93.75" as="geometry" />
        </mxCell>
        <mxCell id="4SogQBf6n7-kV0P4GwOn-7" style="edgeStyle=orthogonalEdgeStyle;rounded=0;orthogonalLoop=1;jettySize=auto;html=1;exitX=0.5;exitY=1;exitDx=0;exitDy=0;entryX=0.5;entryY=0;entryDx=0;entryDy=0;" edge="1" parent="7D4D_Bx56o440GsSsZuF-1" source="4SogQBf6n7-kV0P4GwOn-8" target="G2gaqNY2C0DVRbg2v3G8-0">
          <mxGeometry relative="1" as="geometry">
            <mxPoint x="245" y="280" as="targetPoint" />
          </mxGeometry>
        </mxCell>
        <mxCell id="4SogQBf6n7-kV0P4GwOn-8" value="Создать матрицу вращения localRotation" style="rounded=0;whiteSpace=wrap;html=1;" vertex="1" parent="7D4D_Bx56o440GsSsZuF-1">
          <mxGeometry x="130" y="190" width="230" height="60" as="geometry" />
        </mxCell>
        <mxCell id="G2gaqNY2C0DVRbg2v3G8-2" style="edgeStyle=orthogonalEdgeStyle;rounded=0;orthogonalLoop=1;jettySize=auto;html=1;exitX=1;exitY=0.5;exitDx=0;exitDy=0;entryX=0.5;entryY=0;entryDx=0;entryDy=0;" edge="1" parent="7D4D_Bx56o440GsSsZuF-1" source="G2gaqNY2C0DVRbg2v3G8-0" target="G2gaqNY2C0DVRbg2v3G8-1">
          <mxGeometry relative="1" as="geometry" />
        </mxCell>
        <mxCell id="G2gaqNY2C0DVRbg2v3G8-7" style="edgeStyle=orthogonalEdgeStyle;rounded=0;orthogonalLoop=1;jettySize=auto;html=1;exitX=0;exitY=0.5;exitDx=0;exitDy=0;entryX=0.5;entryY=0;entryDx=0;entryDy=0;" edge="1" parent="7D4D_Bx56o440GsSsZuF-1" source="G2gaqNY2C0DVRbg2v3G8-0" target="G2gaqNY2C0DVRbg2v3G8-5">
          <mxGeometry relative="1" as="geometry" />
        </mxCell>
        <mxCell id="G2gaqNY2C0DVRbg2v3G8-0" value="Содержится ли&amp;nbsp;&lt;div&gt;родительская кость в словаре boneTransforms?&lt;/div&gt;" style="rhombus;whiteSpace=wrap;html=1;" vertex="1" parent="7D4D_Bx56o440GsSsZuF-1">
          <mxGeometry x="140" y="270" width="210" height="80" as="geometry" />
        </mxCell>
        <mxCell id="G2gaqNY2C0DVRbg2v3G8-1" value="Вычислить итоговую матрицу трансформации для текущей кости" style="rounded=0;whiteSpace=wrap;html=1;" vertex="1" parent="7D4D_Bx56o440GsSsZuF-1">
          <mxGeometry x="320" y="340" width="210" height="60" as="geometry" />
        </mxCell>
        <mxCell id="G2gaqNY2C0DVRbg2v3G8-3" value="&lt;p style=&quot;line-height: 100%; font-size: 10px;&quot;&gt;&lt;br style=&quot;font-size: 10px;&quot;&gt;&lt;/p&gt;" style="strokeWidth=1;html=1;shape=stencil(rZXNcoMgFIWfhm2HiH2ADk2X3XTRNdHbyiSAAzRp377I1YnUnxjtTBbcc835uAdGCeOuEjWQjGqhgLBnkmWFUQq0D6sgV6jlFMtLWgpXQ+FROwsrxeEE2HHemiNcZOlbB6krsDK6sj2hT+GZ5sd4YbQOJtJol3R6/WAmZLMj+o1m9OERMT9tjVUdCAo82ES9TvaKAsleVpN2y0hvK0jpRB33Fun9ftJuHWm/mbTwlDaDlh7SBIjxoExdS8YPojh+WvOly9Ht1aK58oNG11bmDNd953QsofHJO4eT1D0Hxv7ZIV9h8WeMeYsY7yClqE5Ey/iHsTCTOb5tZoh3HUo6zLJIS+EqKMO6XfTv4YbDmIePJ3kzlPi3QaJRxa9BFH4B);align=left;labelPosition=right;pointerEvents=1;gradientColor=#ffffff;spacing=0;fontSize=10;shadow=0;spacingBottom=1;fontFamily=Times New Roman;" vertex="1" parent="7D4D_Bx56o440GsSsZuF-1">
          <mxGeometry x="530" y="338.29" width="40" height="63.43" as="geometry" />
        </mxCell>
        <mxCell id="G2gaqNY2C0DVRbg2v3G8-4" value="&lt;span style=&quot;color: rgb(0, 0, 0); font-family: Helvetica; font-size: 12px; font-style: normal; font-variant-ligatures: normal; font-variant-caps: normal; font-weight: 400; letter-spacing: normal; orphans: 2; text-align: center; text-indent: 0px; text-transform: none; widows: 2; word-spacing: 0px; -webkit-text-stroke-width: 0px; white-space: normal; background-color: rgb(251, 251, 251); text-decoration-thickness: initial; text-decoration-style: initial; text-decoration-color: initial; display: inline !important; float: none;&quot;&gt;boneTransforms[bone] = localRotation * boneTransforms[parentBone]&lt;/span&gt;" style="text;whiteSpace=wrap;html=1;" vertex="1" parent="7D4D_Bx56o440GsSsZuF-1">
          <mxGeometry x="570" y="340" width="150" height="40" as="geometry" />
        </mxCell>
        <mxCell id="G2gaqNY2C0DVRbg2v3G8-8" style="edgeStyle=orthogonalEdgeStyle;rounded=0;orthogonalLoop=1;jettySize=auto;html=1;exitX=0.5;exitY=1;exitDx=0;exitDy=0;entryX=0.5;entryY=1;entryDx=0;entryDy=0;endArrow=none;endFill=0;" edge="1" parent="7D4D_Bx56o440GsSsZuF-1" source="G2gaqNY2C0DVRbg2v3G8-5" target="G2gaqNY2C0DVRbg2v3G8-1">
          <mxGeometry relative="1" as="geometry" />
        </mxCell>
        <mxCell id="G2gaqNY2C0DVRbg2v3G8-5" value="Записать в словарь boneTransforms локальную матрицу вращения для текущей кости" style="rounded=0;whiteSpace=wrap;html=1;" vertex="1" parent="7D4D_Bx56o440GsSsZuF-1">
          <mxGeometry x="-50" y="340" width="210" height="60" as="geometry" />
        </mxCell>
        <mxCell id="G2gaqNY2C0DVRbg2v3G8-10" style="edgeStyle=orthogonalEdgeStyle;rounded=0;orthogonalLoop=1;jettySize=auto;html=1;endArrow=none;endFill=0;startArrow=classic;startFill=1;" edge="1" parent="7D4D_Bx56o440GsSsZuF-1" source="G2gaqNY2C0DVRbg2v3G8-9">
          <mxGeometry relative="1" as="geometry">
            <mxPoint x="245" y="420" as="targetPoint" />
          </mxGeometry>
        </mxCell>
        <mxCell id="G2gaqNY2C0DVRbg2v3G8-9" value="&lt;p style=&quot;line-height: 1;&quot;&gt;&lt;font style=&quot;font-size: 12px;&quot; face=&quot;Helvetica&quot;&gt;Конец&lt;/font&gt;&lt;/p&gt;" style="shape=stencil(vZXxboMgEMafhj9dUNwDLG57j9NelRTBIKv27YegWdHq1s3OmJD7Dn/3nZyRsKytoEGSUAk1EvZKkiTHkku7WrHySkp92PkwnmJoGyyMF8+gOeQCfaY1Wp2w4wczIrisUHMzZNkboS92z3CzrFBSWghXsg0yV3kLAy7ts7T3sLH8JYgay6/RoB5NepUk7z/HPj0/Bhw/yG+Indzv7nc/cOg4ftTB7QaOf49lmVXWhptlORSnUqsPebhp5siFKJRQ2oZ+dbVIwuh4bTfTwPDhLRJTulZn/OpydizpJntCgC5WCWOkZ1l9CWMBusTIgqKjgDJ4m22H2CzlPoKet5FWBoaXGlTbtiu4vOo4vm34jo7nhPQPPdN/6fmuU3bTuxgip65Mrp1ZpfGbkfa/hY2qqxtc6UUFp/o/mBM+AQ==);whiteSpace=wrap;html=1;aspect=fixed;fontFamily=Times New Roman;fontSize=10;spacingBottom=4;" vertex="1" parent="7D4D_Bx56o440GsSsZuF-1">
          <mxGeometry x="140" y="440" width="210" height="60" as="geometry" />
        </mxCell>
      </root>
    </mxGraphModel>
  </diagram>
  <diagram id="dcrQMRopvn46fKCnp5i5" name="Страница — 4">
    <mxGraphModel dx="1128" dy="3353" grid="1" gridSize="10" guides="1" tooltips="1" connect="1" arrows="1" fold="1" page="1" pageScale="1" pageWidth="1654" pageHeight="2336" math="0" shadow="0">
      <root>
        <mxCell id="0" />
        <mxCell id="1" parent="0" />
        <mxCell id="OFJOHECMSeoLeFQNp50w-45" style="edgeStyle=orthogonalEdgeStyle;rounded=0;orthogonalLoop=1;jettySize=auto;html=1;exitX=1;exitY=0.25;exitDx=0;exitDy=0;entryX=0;entryY=0.25;entryDx=0;entryDy=0;" edge="1" parent="1" source="OFJOHECMSeoLeFQNp50w-10" target="OFJOHECMSeoLeFQNp50w-22">
          <mxGeometry relative="1" as="geometry" />
        </mxCell>
        <mxCell id="OFJOHECMSeoLeFQNp50w-46" style="edgeStyle=orthogonalEdgeStyle;rounded=0;orthogonalLoop=1;jettySize=auto;html=1;exitX=1;exitY=0.25;exitDx=0;exitDy=0;entryX=0;entryY=0.25;entryDx=0;entryDy=0;" edge="1" parent="1" source="OFJOHECMSeoLeFQNp50w-10" target="OFJOHECMSeoLeFQNp50w-26">
          <mxGeometry relative="1" as="geometry" />
        </mxCell>
        <mxCell id="OFJOHECMSeoLeFQNp50w-47" style="edgeStyle=orthogonalEdgeStyle;rounded=0;orthogonalLoop=1;jettySize=auto;html=1;exitX=1;exitY=0.25;exitDx=0;exitDy=0;entryX=0;entryY=0.25;entryDx=0;entryDy=0;" edge="1" parent="1" source="OFJOHECMSeoLeFQNp50w-10" target="OFJOHECMSeoLeFQNp50w-30">
          <mxGeometry relative="1" as="geometry" />
        </mxCell>
        <mxCell id="OFJOHECMSeoLeFQNp50w-10" value="&lt;b&gt;MainWindow&lt;/b&gt;" style="swimlane;fontStyle=0;childLayout=stackLayout;horizontal=1;startSize=30;horizontalStack=0;resizeParent=1;resizeParentMax=0;resizeLast=0;collapsible=1;marginBottom=0;whiteSpace=wrap;html=1;" vertex="1" parent="1">
          <mxGeometry x="10" y="-30" width="230" height="300" as="geometry" />
        </mxCell>
        <mxCell id="OFJOHECMSeoLeFQNp50w-57" value="+&amp;nbsp;CameraController _cameraController&amp;nbsp;" style="text;strokeColor=none;fillColor=none;align=left;verticalAlign=middle;spacingLeft=4;spacingRight=4;overflow=hidden;points=[[0,0.5],[1,0.5]];portConstraint=eastwest;rotatable=0;whiteSpace=wrap;html=1;" vertex="1" parent="OFJOHECMSeoLeFQNp50w-10">
          <mxGeometry y="30" width="230" height="30" as="geometry" />
        </mxCell>
        <mxCell id="OFJOHECMSeoLeFQNp50w-11" value="+&amp;nbsp;SunflowerField _sunflowerField&amp;nbsp;" style="text;strokeColor=none;fillColor=none;align=left;verticalAlign=middle;spacingLeft=4;spacingRight=4;overflow=hidden;points=[[0,0.5],[1,0.5]];portConstraint=eastwest;rotatable=0;whiteSpace=wrap;html=1;" vertex="1" parent="OFJOHECMSeoLeFQNp50w-10">
          <mxGeometry y="60" width="230" height="30" as="geometry" />
        </mxCell>
        <mxCell id="OFJOHECMSeoLeFQNp50w-58" value="+&amp;nbsp;Sun _sun" style="text;strokeColor=none;fillColor=none;align=left;verticalAlign=middle;spacingLeft=4;spacingRight=4;overflow=hidden;points=[[0,0.5],[1,0.5]];portConstraint=eastwest;rotatable=0;whiteSpace=wrap;html=1;" vertex="1" parent="OFJOHECMSeoLeFQNp50w-10">
          <mxGeometry y="90" width="230" height="30" as="geometry" />
        </mxCell>
        <mxCell id="OFJOHECMSeoLeFQNp50w-18" value="" style="swimlane;fontStyle=0;childLayout=stackLayout;horizontal=1;startSize=0;horizontalStack=0;resizeParent=1;resizeParentMax=0;resizeLast=0;collapsible=1;marginBottom=0;whiteSpace=wrap;html=1;" vertex="1" parent="OFJOHECMSeoLeFQNp50w-10">
          <mxGeometry y="120" width="230" height="180" as="geometry" />
        </mxCell>
        <mxCell id="OFJOHECMSeoLeFQNp50w-55" value="+&amp;nbsp;InitializeSun()" style="text;strokeColor=none;fillColor=none;align=left;verticalAlign=middle;spacingLeft=4;spacingRight=4;overflow=hidden;points=[[0,0.5],[1,0.5]];portConstraint=eastwest;rotatable=0;whiteSpace=wrap;html=1;" vertex="1" parent="OFJOHECMSeoLeFQNp50w-18">
          <mxGeometry width="230" height="30" as="geometry" />
        </mxCell>
        <mxCell id="OFJOHECMSeoLeFQNp50w-61" value="+ SetSceneSizeButton_Click()" style="text;strokeColor=none;fillColor=none;align=left;verticalAlign=middle;spacingLeft=4;spacingRight=4;overflow=hidden;points=[[0,0.5],[1,0.5]];portConstraint=eastwest;rotatable=0;whiteSpace=wrap;html=1;" vertex="1" parent="OFJOHECMSeoLeFQNp50w-18">
          <mxGeometry y="30" width="230" height="30" as="geometry" />
        </mxCell>
        <mxCell id="OFJOHECMSeoLeFQNp50w-62" value="+&amp;nbsp;StartWindButton_Click()" style="text;strokeColor=none;fillColor=none;align=left;verticalAlign=middle;spacingLeft=4;spacingRight=4;overflow=hidden;points=[[0,0.5],[1,0.5]];portConstraint=eastwest;rotatable=0;whiteSpace=wrap;html=1;" vertex="1" parent="OFJOHECMSeoLeFQNp50w-18">
          <mxGeometry y="60" width="230" height="30" as="geometry" />
        </mxCell>
        <mxCell id="OFJOHECMSeoLeFQNp50w-63" value="+&amp;nbsp;StopWindButton_Click()" style="text;strokeColor=none;fillColor=none;align=left;verticalAlign=middle;spacingLeft=4;spacingRight=4;overflow=hidden;points=[[0,0.5],[1,0.5]];portConstraint=eastwest;rotatable=0;whiteSpace=wrap;html=1;" vertex="1" parent="OFJOHECMSeoLeFQNp50w-18">
          <mxGeometry y="90" width="230" height="30" as="geometry" />
        </mxCell>
        <mxCell id="OFJOHECMSeoLeFQNp50w-60" value="+&amp;nbsp;ApplyTimeOfDayButton_Click()" style="text;strokeColor=none;fillColor=none;align=left;verticalAlign=middle;spacingLeft=4;spacingRight=4;overflow=hidden;points=[[0,0.5],[1,0.5]];portConstraint=eastwest;rotatable=0;whiteSpace=wrap;html=1;" vertex="1" parent="OFJOHECMSeoLeFQNp50w-18">
          <mxGeometry y="120" width="230" height="30" as="geometry" />
        </mxCell>
        <mxCell id="OFJOHECMSeoLeFQNp50w-64" value="+ SetTimeGoingButton_Click()" style="text;strokeColor=none;fillColor=none;align=left;verticalAlign=middle;spacingLeft=4;spacingRight=4;overflow=hidden;points=[[0,0.5],[1,0.5]];portConstraint=eastwest;rotatable=0;whiteSpace=wrap;html=1;" vertex="1" parent="OFJOHECMSeoLeFQNp50w-18">
          <mxGeometry y="150" width="230" height="30" as="geometry" />
        </mxCell>
        <mxCell id="OFJOHECMSeoLeFQNp50w-22" value="&lt;b&gt;Camera&lt;/b&gt;" style="swimlane;fontStyle=0;childLayout=stackLayout;horizontal=1;startSize=30;horizontalStack=0;resizeParent=1;resizeParentMax=0;resizeLast=0;collapsible=1;marginBottom=0;whiteSpace=wrap;html=1;" vertex="1" parent="1">
          <mxGeometry x="320" y="-520" width="200" height="330" as="geometry" />
        </mxCell>
        <mxCell id="OFJOHECMSeoLeFQNp50w-23" value="+&amp;nbsp;double CameraMoveAmount" style="text;strokeColor=none;fillColor=none;align=left;verticalAlign=middle;spacingLeft=4;spacingRight=4;overflow=hidden;points=[[0,0.5],[1,0.5]];portConstraint=eastwest;rotatable=0;whiteSpace=wrap;html=1;" vertex="1" parent="OFJOHECMSeoLeFQNp50w-22">
          <mxGeometry y="30" width="200" height="30" as="geometry" />
        </mxCell>
        <mxCell id="OFJOHECMSeoLeFQNp50w-65" value="+&amp;nbsp;double ZoomAmount" style="text;strokeColor=none;fillColor=none;align=left;verticalAlign=middle;spacingLeft=4;spacingRight=4;overflow=hidden;points=[[0,0.5],[1,0.5]];portConstraint=eastwest;rotatable=0;whiteSpace=wrap;html=1;" vertex="1" parent="OFJOHECMSeoLeFQNp50w-22">
          <mxGeometry y="60" width="200" height="30" as="geometry" />
        </mxCell>
        <mxCell id="OFJOHECMSeoLeFQNp50w-66" value="+&amp;nbsp;double RotationSpeed" style="text;strokeColor=none;fillColor=none;align=left;verticalAlign=middle;spacingLeft=4;spacingRight=4;overflow=hidden;points=[[0,0.5],[1,0.5]];portConstraint=eastwest;rotatable=0;whiteSpace=wrap;html=1;" vertex="1" parent="OFJOHECMSeoLeFQNp50w-22">
          <mxGeometry y="90" width="200" height="30" as="geometry" />
        </mxCell>
        <mxCell id="OFJOHECMSeoLeFQNp50w-67" value="+&amp;nbsp;Point lastMousePosition" style="text;strokeColor=none;fillColor=none;align=left;verticalAlign=middle;spacingLeft=4;spacingRight=4;overflow=hidden;points=[[0,0.5],[1,0.5]];portConstraint=eastwest;rotatable=0;whiteSpace=wrap;html=1;" vertex="1" parent="OFJOHECMSeoLeFQNp50w-22">
          <mxGeometry y="120" width="200" height="30" as="geometry" />
        </mxCell>
        <mxCell id="OFJOHECMSeoLeFQNp50w-68" value="+&amp;nbsp;bool isRotating" style="text;strokeColor=none;fillColor=none;align=left;verticalAlign=middle;spacingLeft=4;spacingRight=4;overflow=hidden;points=[[0,0.5],[1,0.5]];portConstraint=eastwest;rotatable=0;whiteSpace=wrap;html=1;" vertex="1" parent="OFJOHECMSeoLeFQNp50w-22">
          <mxGeometry y="150" width="200" height="30" as="geometry" />
        </mxCell>
        <mxCell id="OFJOHECMSeoLeFQNp50w-24" value="" style="swimlane;fontStyle=0;childLayout=stackLayout;horizontal=1;startSize=0;horizontalStack=0;resizeParent=1;resizeParentMax=0;resizeLast=0;collapsible=1;marginBottom=0;whiteSpace=wrap;html=1;" vertex="1" parent="OFJOHECMSeoLeFQNp50w-22">
          <mxGeometry y="180" width="200" height="150" as="geometry" />
        </mxCell>
        <mxCell id="OFJOHECMSeoLeFQNp50w-69" value="+&amp;nbsp;KeyDown()" style="text;strokeColor=none;fillColor=none;align=left;verticalAlign=middle;spacingLeft=4;spacingRight=4;overflow=hidden;points=[[0,0.5],[1,0.5]];portConstraint=eastwest;rotatable=0;whiteSpace=wrap;html=1;" vertex="1" parent="OFJOHECMSeoLeFQNp50w-24">
          <mxGeometry width="200" height="30" as="geometry" />
        </mxCell>
        <mxCell id="OFJOHECMSeoLeFQNp50w-70" value="+&amp;nbsp;MouseWheel()" style="text;strokeColor=none;fillColor=none;align=left;verticalAlign=middle;spacingLeft=4;spacingRight=4;overflow=hidden;points=[[0,0.5],[1,0.5]];portConstraint=eastwest;rotatable=0;whiteSpace=wrap;html=1;" vertex="1" parent="OFJOHECMSeoLeFQNp50w-24">
          <mxGeometry y="30" width="200" height="30" as="geometry" />
        </mxCell>
        <mxCell id="OFJOHECMSeoLeFQNp50w-71" value="+&amp;nbsp;MouseDown()" style="text;strokeColor=none;fillColor=none;align=left;verticalAlign=middle;spacingLeft=4;spacingRight=4;overflow=hidden;points=[[0,0.5],[1,0.5]];portConstraint=eastwest;rotatable=0;whiteSpace=wrap;html=1;" vertex="1" parent="OFJOHECMSeoLeFQNp50w-24">
          <mxGeometry y="60" width="200" height="30" as="geometry" />
        </mxCell>
        <mxCell id="OFJOHECMSeoLeFQNp50w-72" value="+&amp;nbsp;MouseUp()" style="text;strokeColor=none;fillColor=none;align=left;verticalAlign=middle;spacingLeft=4;spacingRight=4;overflow=hidden;points=[[0,0.5],[1,0.5]];portConstraint=eastwest;rotatable=0;whiteSpace=wrap;html=1;" vertex="1" parent="OFJOHECMSeoLeFQNp50w-24">
          <mxGeometry y="90" width="200" height="30" as="geometry" />
        </mxCell>
        <mxCell id="OFJOHECMSeoLeFQNp50w-73" value="+&amp;nbsp;MouseMove()" style="text;strokeColor=none;fillColor=none;align=left;verticalAlign=middle;spacingLeft=4;spacingRight=4;overflow=hidden;points=[[0,0.5],[1,0.5]];portConstraint=eastwest;rotatable=0;whiteSpace=wrap;html=1;" vertex="1" parent="OFJOHECMSeoLeFQNp50w-24">
          <mxGeometry y="120" width="200" height="30" as="geometry" />
        </mxCell>
        <mxCell id="OFJOHECMSeoLeFQNp50w-48" style="edgeStyle=orthogonalEdgeStyle;rounded=0;orthogonalLoop=1;jettySize=auto;html=1;exitX=1;exitY=0.25;exitDx=0;exitDy=0;entryX=0;entryY=0.25;entryDx=0;entryDy=0;" edge="1" parent="1" source="OFJOHECMSeoLeFQNp50w-26" target="OFJOHECMSeoLeFQNp50w-38">
          <mxGeometry relative="1" as="geometry" />
        </mxCell>
        <mxCell id="OFJOHECMSeoLeFQNp50w-49" style="edgeStyle=orthogonalEdgeStyle;rounded=0;orthogonalLoop=1;jettySize=auto;html=1;exitX=1;exitY=0.25;exitDx=0;exitDy=0;entryX=0;entryY=0.25;entryDx=0;entryDy=0;" edge="1" parent="1" source="OFJOHECMSeoLeFQNp50w-26" target="OFJOHECMSeoLeFQNp50w-34">
          <mxGeometry relative="1" as="geometry" />
        </mxCell>
        <mxCell id="OFJOHECMSeoLeFQNp50w-54" style="edgeStyle=orthogonalEdgeStyle;rounded=0;orthogonalLoop=1;jettySize=auto;html=1;exitX=1;exitY=0.25;exitDx=0;exitDy=0;entryX=0;entryY=0.25;entryDx=0;entryDy=0;" edge="1" parent="1" source="OFJOHECMSeoLeFQNp50w-26" target="OFJOHECMSeoLeFQNp50w-50">
          <mxGeometry relative="1" as="geometry" />
        </mxCell>
        <mxCell id="OFJOHECMSeoLeFQNp50w-26" value="&lt;b&gt;SunflowerField&lt;/b&gt;" style="swimlane;fontStyle=0;childLayout=stackLayout;horizontal=1;startSize=30;horizontalStack=0;resizeParent=1;resizeParentMax=0;resizeLast=0;collapsible=1;marginBottom=0;whiteSpace=wrap;html=1;" vertex="1" parent="1">
          <mxGeometry x="320" y="-150" width="200" height="390" as="geometry" />
        </mxCell>
        <mxCell id="OFJOHECMSeoLeFQNp50w-27" value="+&amp;nbsp;double _width" style="text;strokeColor=none;fillColor=none;align=left;verticalAlign=middle;spacingLeft=4;spacingRight=4;overflow=hidden;points=[[0,0.5],[1,0.5]];portConstraint=eastwest;rotatable=0;whiteSpace=wrap;html=1;" vertex="1" parent="OFJOHECMSeoLeFQNp50w-26">
          <mxGeometry y="30" width="200" height="30" as="geometry" />
        </mxCell>
        <mxCell id="OFJOHECMSeoLeFQNp50w-74" value="+&amp;nbsp;double _height" style="text;strokeColor=none;fillColor=none;align=left;verticalAlign=middle;spacingLeft=4;spacingRight=4;overflow=hidden;points=[[0,0.5],[1,0.5]];portConstraint=eastwest;rotatable=0;whiteSpace=wrap;html=1;" vertex="1" parent="OFJOHECMSeoLeFQNp50w-26">
          <mxGeometry y="60" width="200" height="30" as="geometry" />
        </mxCell>
        <mxCell id="OFJOHECMSeoLeFQNp50w-75" value="+&amp;nbsp;int _countSunflowers" style="text;strokeColor=none;fillColor=none;align=left;verticalAlign=middle;spacingLeft=4;spacingRight=4;overflow=hidden;points=[[0,0.5],[1,0.5]];portConstraint=eastwest;rotatable=0;whiteSpace=wrap;html=1;" vertex="1" parent="OFJOHECMSeoLeFQNp50w-26">
          <mxGeometry y="90" width="200" height="30" as="geometry" />
        </mxCell>
        <mxCell id="OFJOHECMSeoLeFQNp50w-76" value="+&amp;nbsp;Model3DGroup _modelGroup" style="text;strokeColor=none;fillColor=none;align=left;verticalAlign=middle;spacingLeft=4;spacingRight=4;overflow=hidden;points=[[0,0.5],[1,0.5]];portConstraint=eastwest;rotatable=0;whiteSpace=wrap;html=1;" vertex="1" parent="OFJOHECMSeoLeFQNp50w-26">
          <mxGeometry y="120" width="200" height="30" as="geometry" />
        </mxCell>
        <mxCell id="OFJOHECMSeoLeFQNp50w-77" value="+&amp;nbsp;Random _random" style="text;strokeColor=none;fillColor=none;align=left;verticalAlign=middle;spacingLeft=4;spacingRight=4;overflow=hidden;points=[[0,0.5],[1,0.5]];portConstraint=eastwest;rotatable=0;whiteSpace=wrap;html=1;" vertex="1" parent="OFJOHECMSeoLeFQNp50w-26">
          <mxGeometry y="150" width="200" height="30" as="geometry" />
        </mxCell>
        <mxCell id="OFJOHECMSeoLeFQNp50w-78" value="+&amp;nbsp;string _sunflowerTexturePath" style="text;strokeColor=none;fillColor=none;align=left;verticalAlign=middle;spacingLeft=4;spacingRight=4;overflow=hidden;points=[[0,0.5],[1,0.5]];portConstraint=eastwest;rotatable=0;whiteSpace=wrap;html=1;" vertex="1" parent="OFJOHECMSeoLeFQNp50w-26">
          <mxGeometry y="180" width="200" height="30" as="geometry" />
        </mxCell>
        <mxCell id="OFJOHECMSeoLeFQNp50w-79" value="+&amp;nbsp;string _sunflowerModelPath" style="text;strokeColor=none;fillColor=none;align=left;verticalAlign=middle;spacingLeft=4;spacingRight=4;overflow=hidden;points=[[0,0.5],[1,0.5]];portConstraint=eastwest;rotatable=0;whiteSpace=wrap;html=1;" vertex="1" parent="OFJOHECMSeoLeFQNp50w-26">
          <mxGeometry y="210" width="200" height="30" as="geometry" />
        </mxCell>
        <mxCell id="OFJOHECMSeoLeFQNp50w-56" value="+&amp;nbsp;List&amp;lt;GeometryModel3D&amp;gt; _sunflowerModels" style="text;strokeColor=none;fillColor=none;align=left;verticalAlign=middle;spacingLeft=4;spacingRight=4;overflow=hidden;points=[[0,0.5],[1,0.5]];portConstraint=eastwest;rotatable=0;whiteSpace=wrap;html=1;" vertex="1" parent="OFJOHECMSeoLeFQNp50w-26">
          <mxGeometry y="240" width="200" height="30" as="geometry" />
        </mxCell>
        <mxCell id="OFJOHECMSeoLeFQNp50w-80" value="+&amp;nbsp;WindAnimator _windAnimator" style="text;strokeColor=none;fillColor=none;align=left;verticalAlign=middle;spacingLeft=4;spacingRight=4;overflow=hidden;points=[[0,0.5],[1,0.5]];portConstraint=eastwest;rotatable=0;whiteSpace=wrap;html=1;" vertex="1" parent="OFJOHECMSeoLeFQNp50w-26">
          <mxGeometry y="270" width="200" height="30" as="geometry" />
        </mxCell>
        <mxCell id="OFJOHECMSeoLeFQNp50w-81" value="+&amp;nbsp;List&amp;lt;BoneWeight&amp;gt; _boneWeights" style="text;strokeColor=none;fillColor=none;align=left;verticalAlign=middle;spacingLeft=4;spacingRight=4;overflow=hidden;points=[[0,0.5],[1,0.5]];portConstraint=eastwest;rotatable=0;whiteSpace=wrap;html=1;" vertex="1" parent="OFJOHECMSeoLeFQNp50w-26">
          <mxGeometry y="300" width="200" height="30" as="geometry" />
        </mxCell>
        <mxCell id="OFJOHECMSeoLeFQNp50w-82" value="+&amp;nbsp;List&amp;lt;Bone&amp;gt; _bones" style="text;strokeColor=none;fillColor=none;align=left;verticalAlign=middle;spacingLeft=4;spacingRight=4;overflow=hidden;points=[[0,0.5],[1,0.5]];portConstraint=eastwest;rotatable=0;whiteSpace=wrap;html=1;" vertex="1" parent="OFJOHECMSeoLeFQNp50w-26">
          <mxGeometry y="330" width="200" height="30" as="geometry" />
        </mxCell>
        <mxCell id="OFJOHECMSeoLeFQNp50w-28" value="" style="swimlane;fontStyle=0;childLayout=stackLayout;horizontal=1;startSize=0;horizontalStack=0;resizeParent=1;resizeParentMax=0;resizeLast=0;collapsible=1;marginBottom=0;whiteSpace=wrap;html=1;" vertex="1" parent="OFJOHECMSeoLeFQNp50w-26">
          <mxGeometry y="360" width="200" height="30" as="geometry" />
        </mxCell>
        <mxCell id="OFJOHECMSeoLeFQNp50w-29" value="Item 3" style="text;strokeColor=none;fillColor=none;align=left;verticalAlign=middle;spacingLeft=4;spacingRight=4;overflow=hidden;points=[[0,0.5],[1,0.5]];portConstraint=eastwest;rotatable=0;whiteSpace=wrap;html=1;" vertex="1" parent="OFJOHECMSeoLeFQNp50w-28">
          <mxGeometry width="200" height="30" as="geometry" />
        </mxCell>
        <mxCell id="OFJOHECMSeoLeFQNp50w-30" value="&lt;b&gt;Sun&lt;/b&gt;" style="swimlane;fontStyle=0;childLayout=stackLayout;horizontal=1;startSize=30;horizontalStack=0;resizeParent=1;resizeParentMax=0;resizeLast=0;collapsible=1;marginBottom=0;whiteSpace=wrap;html=1;" vertex="1" parent="1">
          <mxGeometry x="320" y="340" width="140" height="90" as="geometry" />
        </mxCell>
        <mxCell id="OFJOHECMSeoLeFQNp50w-31" value="Item 1" style="text;strokeColor=none;fillColor=none;align=left;verticalAlign=middle;spacingLeft=4;spacingRight=4;overflow=hidden;points=[[0,0.5],[1,0.5]];portConstraint=eastwest;rotatable=0;whiteSpace=wrap;html=1;" vertex="1" parent="OFJOHECMSeoLeFQNp50w-30">
          <mxGeometry y="30" width="140" height="30" as="geometry" />
        </mxCell>
        <mxCell id="OFJOHECMSeoLeFQNp50w-32" value="" style="swimlane;fontStyle=0;childLayout=stackLayout;horizontal=1;startSize=0;horizontalStack=0;resizeParent=1;resizeParentMax=0;resizeLast=0;collapsible=1;marginBottom=0;whiteSpace=wrap;html=1;" vertex="1" parent="OFJOHECMSeoLeFQNp50w-30">
          <mxGeometry y="60" width="140" height="30" as="geometry" />
        </mxCell>
        <mxCell id="OFJOHECMSeoLeFQNp50w-33" value="Item 3" style="text;strokeColor=none;fillColor=none;align=left;verticalAlign=middle;spacingLeft=4;spacingRight=4;overflow=hidden;points=[[0,0.5],[1,0.5]];portConstraint=eastwest;rotatable=0;whiteSpace=wrap;html=1;" vertex="1" parent="OFJOHECMSeoLeFQNp50w-32">
          <mxGeometry width="140" height="30" as="geometry" />
        </mxCell>
        <mxCell id="OFJOHECMSeoLeFQNp50w-34" value="&lt;b&gt;BoneWeight&lt;/b&gt;" style="swimlane;fontStyle=0;childLayout=stackLayout;horizontal=1;startSize=30;horizontalStack=0;resizeParent=1;resizeParentMax=0;resizeLast=0;collapsible=1;marginBottom=0;whiteSpace=wrap;html=1;" vertex="1" parent="1">
          <mxGeometry x="640" y="-10" width="140" height="90" as="geometry" />
        </mxCell>
        <mxCell id="OFJOHECMSeoLeFQNp50w-35" value="Item 1" style="text;strokeColor=none;fillColor=none;align=left;verticalAlign=middle;spacingLeft=4;spacingRight=4;overflow=hidden;points=[[0,0.5],[1,0.5]];portConstraint=eastwest;rotatable=0;whiteSpace=wrap;html=1;" vertex="1" parent="OFJOHECMSeoLeFQNp50w-34">
          <mxGeometry y="30" width="140" height="30" as="geometry" />
        </mxCell>
        <mxCell id="OFJOHECMSeoLeFQNp50w-36" value="" style="swimlane;fontStyle=0;childLayout=stackLayout;horizontal=1;startSize=0;horizontalStack=0;resizeParent=1;resizeParentMax=0;resizeLast=0;collapsible=1;marginBottom=0;whiteSpace=wrap;html=1;" vertex="1" parent="OFJOHECMSeoLeFQNp50w-34">
          <mxGeometry y="60" width="140" height="30" as="geometry" />
        </mxCell>
        <mxCell id="OFJOHECMSeoLeFQNp50w-37" value="Item 3" style="text;strokeColor=none;fillColor=none;align=left;verticalAlign=middle;spacingLeft=4;spacingRight=4;overflow=hidden;points=[[0,0.5],[1,0.5]];portConstraint=eastwest;rotatable=0;whiteSpace=wrap;html=1;" vertex="1" parent="OFJOHECMSeoLeFQNp50w-36">
          <mxGeometry width="140" height="30" as="geometry" />
        </mxCell>
        <mxCell id="OFJOHECMSeoLeFQNp50w-38" value="&lt;b&gt;WindAnimator&lt;/b&gt;" style="swimlane;fontStyle=0;childLayout=stackLayout;horizontal=1;startSize=30;horizontalStack=0;resizeParent=1;resizeParentMax=0;resizeLast=0;collapsible=1;marginBottom=0;whiteSpace=wrap;html=1;" vertex="1" parent="1">
          <mxGeometry x="640" y="-150" width="140" height="90" as="geometry" />
        </mxCell>
        <mxCell id="OFJOHECMSeoLeFQNp50w-39" value="Item 1" style="text;strokeColor=none;fillColor=none;align=left;verticalAlign=middle;spacingLeft=4;spacingRight=4;overflow=hidden;points=[[0,0.5],[1,0.5]];portConstraint=eastwest;rotatable=0;whiteSpace=wrap;html=1;" vertex="1" parent="OFJOHECMSeoLeFQNp50w-38">
          <mxGeometry y="30" width="140" height="30" as="geometry" />
        </mxCell>
        <mxCell id="OFJOHECMSeoLeFQNp50w-40" value="" style="swimlane;fontStyle=0;childLayout=stackLayout;horizontal=1;startSize=0;horizontalStack=0;resizeParent=1;resizeParentMax=0;resizeLast=0;collapsible=1;marginBottom=0;whiteSpace=wrap;html=1;" vertex="1" parent="OFJOHECMSeoLeFQNp50w-38">
          <mxGeometry y="60" width="140" height="30" as="geometry" />
        </mxCell>
        <mxCell id="OFJOHECMSeoLeFQNp50w-41" value="Item 3" style="text;strokeColor=none;fillColor=none;align=left;verticalAlign=middle;spacingLeft=4;spacingRight=4;overflow=hidden;points=[[0,0.5],[1,0.5]];portConstraint=eastwest;rotatable=0;whiteSpace=wrap;html=1;" vertex="1" parent="OFJOHECMSeoLeFQNp50w-40">
          <mxGeometry width="140" height="30" as="geometry" />
        </mxCell>
        <mxCell id="OFJOHECMSeoLeFQNp50w-50" value="&lt;b&gt;Bone&lt;/b&gt;" style="swimlane;fontStyle=0;childLayout=stackLayout;horizontal=1;startSize=30;horizontalStack=0;resizeParent=1;resizeParentMax=0;resizeLast=0;collapsible=1;marginBottom=0;whiteSpace=wrap;html=1;" vertex="1" parent="1">
          <mxGeometry x="640" y="110" width="140" height="90" as="geometry" />
        </mxCell>
        <mxCell id="OFJOHECMSeoLeFQNp50w-51" value="Item 1" style="text;strokeColor=none;fillColor=none;align=left;verticalAlign=middle;spacingLeft=4;spacingRight=4;overflow=hidden;points=[[0,0.5],[1,0.5]];portConstraint=eastwest;rotatable=0;whiteSpace=wrap;html=1;" vertex="1" parent="OFJOHECMSeoLeFQNp50w-50">
          <mxGeometry y="30" width="140" height="30" as="geometry" />
        </mxCell>
        <mxCell id="OFJOHECMSeoLeFQNp50w-52" value="" style="swimlane;fontStyle=0;childLayout=stackLayout;horizontal=1;startSize=0;horizontalStack=0;resizeParent=1;resizeParentMax=0;resizeLast=0;collapsible=1;marginBottom=0;whiteSpace=wrap;html=1;" vertex="1" parent="OFJOHECMSeoLeFQNp50w-50">
          <mxGeometry y="60" width="140" height="30" as="geometry" />
        </mxCell>
        <mxCell id="OFJOHECMSeoLeFQNp50w-53" value="Item 3" style="text;strokeColor=none;fillColor=none;align=left;verticalAlign=middle;spacingLeft=4;spacingRight=4;overflow=hidden;points=[[0,0.5],[1,0.5]];portConstraint=eastwest;rotatable=0;whiteSpace=wrap;html=1;" vertex="1" parent="OFJOHECMSeoLeFQNp50w-52">
          <mxGeometry width="140" height="30" as="geometry" />
        </mxCell>
      </root>
    </mxGraphModel>
  </diagram>
</mxfile>
